<svg width="49" height="49" viewBox="0 0 49 49" fill="none" xmlns="http://www.w3.org/2000/svg">
    <path fill-rule="evenodd" clip-rule="evenodd" d="M2.65763 0H46.3424C47.8078 0 49 1.19218 49 2.65763V13.339C49 13.739 48.6755 14.0635 48.2751 14.0635C47.8747 14.0635 47.5502 13.739 47.5502 13.339V10.5344H1.44975V34.6479C1.44975 35.3141 1.99145 35.8558 2.65763 35.8558H8.77478L13.047 31.5835V27.4096L10.2634 24.626C10.1273 24.4899 10.0511 24.3056 10.0511 24.1134V18.1694C10.0511 17.9757 10.1285 17.7899 10.2664 17.6539L14.1323 13.8362C14.3405 13.631 14.6516 13.5704 14.9211 13.6833C15.191 13.7958 15.3667 14.0594 15.3667 14.3521V17.0056C15.3667 17.406 15.0422 17.7305 14.6418 17.7305C14.2414 17.7305 13.917 17.406 13.917 17.0056V16.0863L11.5008 18.4722V23.8129L14.2844 26.5965C14.4205 26.7326 14.4968 26.9169 14.4968 27.1094V31.563L17.7772 34.8434C18.3129 34.5828 18.864 34.3541 19.4259 34.16V29.2354C19.4259 28.8848 19.6748 28.5924 20.0057 28.5251V27.1094C20.0057 26.9169 20.082 26.7326 20.218 26.5965L23.0016 23.8129V18.4722L20.5855 16.0863V21.2136C20.5855 21.4629 20.4577 21.6943 20.2468 21.827L17.6374 23.4701C17.4015 23.6189 17.101 23.6189 16.8651 23.4701L14.2557 21.827C14.0448 21.6943 13.917 21.4629 13.917 21.2136V20.4005C13.917 20.0001 14.2414 19.6756 14.6418 19.6756C15.0422 19.6756 15.3667 20.0001 15.3667 20.4005V20.8136L17.2512 22.0001L19.1358 20.8136V14.3517C19.1358 14.0594 19.3115 13.7958 19.5814 13.6829C19.8509 13.5704 20.162 13.6306 20.3702 13.8362L24.2357 17.6539C24.3736 17.7899 24.4514 17.9757 24.4514 18.1694V24.1134C24.4514 24.3056 24.3751 24.4899 24.2391 24.626L21.4554 27.4096V28.5106H27.1576V26.626C27.1576 26.2256 27.4821 25.9012 27.8825 25.9012H29.1872V21.4345L28.164 20.4902C27.9584 20.3003 27.8803 20.0094 27.9633 19.7425L29.7027 14.1371C29.7969 13.834 30.0777 13.6272 30.3951 13.6272H32.3282C32.6456 13.6272 32.9264 13.834 33.0206 14.1371L34.76 19.7425C34.843 20.0094 34.7649 20.3003 34.5593 20.4902L33.5365 21.4345V25.9012H34.8412C35.2412 25.9012 35.566 26.2256 35.566 26.626V31.5835L39.8383 35.8558H46.342C47.0082 35.8558 47.5502 35.3141 47.5502 34.6479V16.7159C47.5502 16.3155 47.8747 15.991 48.2751 15.991C48.6751 15.991 48.9996 16.3155 48.9996 16.7159V34.6479C48.9996 36.1133 47.8074 37.3055 46.342 37.3055H41.2794C41.5015 37.59 41.4821 38.0016 41.2208 38.2633L37.7377 41.746C37.9986 42.2813 38.227 42.8328 38.4214 43.3943H43.346C43.7464 43.3943 44.0709 43.7188 44.0709 44.1191V48.2751C44.0709 48.6755 43.7464 49 43.346 49H29.0422C28.6418 49 28.3173 48.6755 28.3173 48.2751C28.3173 46.0635 26.518 44.2642 24.3067 44.2642C22.0951 44.2642 20.2958 46.0635 20.2958 48.2751C20.2958 48.6755 19.9713 49 19.5709 49H5.26704C4.86703 49 4.54253 48.6755 4.54253 48.2751V44.1191C4.54253 43.7188 4.86703 43.3943 5.26704 43.3943H10.1916C10.386 42.8328 10.6144 42.2813 10.8754 41.746L7.39269 38.2633C7.131 38.0016 7.11156 37.59 7.33363 37.3055H2.65763C1.19218 37.3055 0 36.1133 0 34.6479V2.65763C0 1.19218 1.19218 0 2.65763 0ZM29.4837 19.7354L30.4037 20.5848C30.5525 20.722 30.637 20.9149 30.6373 21.1175V25.9015H32.0867V21.1175C32.0867 20.9149 32.1716 20.722 32.32 20.5848L33.24 19.7354L31.7944 15.077H30.9297L29.4837 19.7354ZM34.1163 31.5633V27.3509L28.6074 27.3513V28.5255C28.9382 28.5928 29.1872 28.8851 29.1872 29.2358V34.16C29.7491 34.3544 30.3001 34.5832 30.8358 34.8438L34.1163 31.5633ZM20.3627 35.3795C19.5414 35.6303 18.7391 35.9631 17.9784 36.3683C17.6969 36.5182 17.3503 36.4666 17.1249 36.2412L13.7824 32.8987L9.58826 37.0932C9.58788 37.0932 9.58751 37.0936 9.58751 37.0939L8.9303 37.7508L12.2728 41.0933C12.4982 41.3187 12.5498 41.6653 12.3999 41.9468C11.9947 42.7071 11.6619 43.5094 11.4111 44.3311C11.318 44.6358 11.0365 44.844 10.7176 44.844H5.99191V47.5502H13.3625C13.5472 44.7928 14.7779 42.1726 16.8049 40.2719C17.0968 39.9983 17.5555 40.0133 17.8292 40.3048C18.1032 40.5972 18.0883 41.0559 17.7963 41.3295C16.0333 42.983 14.9899 45.17 14.8138 47.5502H18.8943C19.2498 44.881 21.5414 42.8148 24.3067 42.8148C27.072 42.8148 29.3637 44.881 29.7192 47.5502H33.7989C33.4277 42.6384 29.3121 38.7557 24.3067 38.7557C22.959 38.7557 21.6573 39.0312 20.4371 39.5747C20.0719 39.7374 19.6427 39.5732 19.4801 39.2076C19.3171 38.8416 19.4816 38.4132 19.8472 38.2502C21.2543 37.6237 22.7545 37.3059 24.3067 37.3059C30.1117 37.3059 34.8771 41.8383 35.2516 47.5502H42.6212V44.844H37.8954C37.5769 44.844 37.2954 44.6358 37.2023 44.3311C36.9515 43.5094 36.6188 42.7071 36.2135 41.9468C36.0636 41.6653 36.1152 41.3187 36.3406 41.0933L39.6832 37.7508L39.0259 37.0939C39.0256 37.0936 39.0256 37.0932 39.0252 37.0932L34.8311 32.8987L31.4886 36.2412C31.2628 36.4666 30.9166 36.5182 30.6351 36.3683C29.8743 35.9631 29.0721 35.6303 28.2507 35.3795C27.9461 35.2864 27.7375 35.0049 27.7375 34.686V29.9603H20.8756V34.686C20.8756 35.0049 20.6674 35.2864 20.3627 35.3795ZM1.44975 2.65763V9.08469H47.5502V2.65763C47.5502 1.99182 47.0086 1.44975 46.3424 1.44975H2.65763C1.99182 1.44975 1.44975 1.99145 1.44975 2.65763ZM3.96233 5.26741C3.96233 4.01505 4.98142 2.99596 6.23379 2.99596C7.48615 2.99596 8.50487 4.01467 8.50487 5.26704C8.50487 6.5194 7.48615 7.53849 6.23379 7.53849C4.98142 7.53849 3.96233 6.51978 3.96233 5.26741ZM5.41209 5.26704C5.41209 5.72013 5.78069 6.08874 6.23379 6.08874C6.68651 6.08874 7.05511 5.72013 7.05511 5.26704C7.05511 4.81432 6.68651 4.44571 6.23379 4.44571C5.78069 4.44571 5.41209 4.81432 5.41209 5.26704ZM10.0511 5.26741C10.0511 4.01505 11.0702 2.99596 12.3225 2.99596C13.5749 2.99596 14.5936 4.01505 14.5936 5.26741C14.5936 6.51978 13.5749 7.53849 12.3225 7.53849C11.0702 7.53849 10.0511 6.51978 10.0511 5.26741ZM11.5008 5.26704C11.5008 5.72013 11.8694 6.08874 12.3225 6.08874C12.7752 6.08874 13.1439 5.72013 13.1439 5.26704C13.1439 4.81432 12.7752 4.44571 12.3225 4.44571C11.8694 4.44571 11.5008 4.81432 11.5008 5.26704ZM18.4113 2.99596C17.1589 2.99596 16.1402 4.01505 16.1402 5.26741C16.1402 6.51978 17.1589 7.53849 18.4113 7.53849C19.6636 7.53849 20.6823 6.51978 20.6823 5.26741C20.6823 4.01505 19.6636 2.99596 18.4113 2.99596ZM18.4113 6.08874C17.9582 6.08874 17.5899 5.72013 17.5899 5.26704C17.5899 4.81432 17.9582 4.44571 18.4113 4.44571C18.8644 4.44571 19.233 4.81432 19.233 5.26704C19.233 5.72013 18.864 6.08874 18.4113 6.08874Z" fill="#F07F45"/>
</svg>
