<svg width="53" height="53" viewBox="0 0 53 53" fill="none" xmlns="http://www.w3.org/2000/svg">
    <path fill-rule="evenodd" clip-rule="evenodd" d="M41.0323 44.4516H52.1452C52.617 44.4516 53 44.8338 53 45.3065V52.1452C53 52.6179 52.617 53 52.1452 53H0.854839C0.382966 53 0 52.6179 0 52.1452V45.3065C0 45.2171 0.0136699 45.131 0.0390271 45.05C0.0579145 44.9899 0.0832716 44.9327 0.114368 44.8793C0.152247 44.8141 0.198683 44.7543 0.252215 44.7012L6.8481 38.1053C6.93617 29.6049 10.1375 21.6071 15.9094 15.4085L12.2182 11.7174C11.8839 11.3831 11.8839 10.843 12.2182 10.5086L13.3236 9.40335L10.5085 6.58841C10.1743 6.25407 10.1743 5.71395 10.5085 5.37961L15.6375 0.250597C15.9718 -0.0835323 16.5121 -0.0835323 16.8463 0.250597L19.6613 3.06555L20.7666 1.96027C21.1008 1.62614 21.6411 1.62614 21.9754 1.96027L39.0721 19.057C39.4064 19.3913 39.4064 19.9314 39.0721 20.2658L37.9669 21.3711L40.7818 24.186C41.1161 24.5203 41.1161 25.0605 40.7818 25.3948L35.6528 30.5238C35.486 30.6906 35.2672 30.7743 35.0484 30.7743C34.8296 30.7743 34.6107 30.6906 34.444 30.5238L31.629 27.7089L30.5238 28.8141C30.4377 28.9003 30.3377 28.9642 30.2309 29.0059C30.131 29.045 30.0252 29.0646 29.9194 29.0646C29.7005 29.0646 29.4817 28.9809 29.315 28.8141L20.9222 20.4213C17.3892 25.611 15.4632 31.7172 15.3957 38.1224L21.7248 44.4516H35.9032V39.3226H31.629C31.1572 39.3226 30.7742 38.9405 30.7742 38.4678V35.0484C30.7742 34.5757 31.1572 34.1936 31.629 34.1936H45.3065C45.7783 34.1936 46.1613 34.5757 46.1613 35.0484V38.4678C46.1613 38.9405 45.7783 39.3226 45.3065 39.3226H41.0323V44.4516ZM44.4516 35.9033H32.4839V37.6129H36.7581H40.1774H44.4516V35.9033ZM39.3226 39.3226H37.6129V44.4516H39.3226V39.3226ZM14.1784 39.3226H8.0474L2.91837 44.4516H19.3074L14.1784 39.3226ZM21.9754 10.5086L25.3947 13.928C25.729 14.2623 25.729 14.8024 25.3947 15.1359L24.8074 15.7232C23.7671 16.7644 22.8131 17.8672 21.936 19.0178L27.3548 24.4364L34.6944 17.0969L23.5081 5.91055L16.1684 13.2501L17.0968 14.1784L20.7666 10.5086C21.1008 10.1745 21.6411 10.1745 21.9754 10.5086ZM35.0484 28.7106L38.9686 24.7904L36.7581 22.5799L32.8378 26.5001L35.0484 28.7106ZM28.5636 25.6452L29.9194 27.001L37.2589 19.6614L35.9032 18.3057L28.5636 25.6452ZM16.2419 2.06378L12.3216 5.98401L14.5323 8.19456L18.4526 4.27434L16.2419 2.06378ZM22.2994 4.70176L21.371 3.77346L14.0313 11.113L14.9597 12.0413L22.2994 4.70176ZM21.371 12.3218L17.9696 15.724C12.096 21.5967 8.7741 29.3407 8.55945 37.6129H13.6876C13.9022 28.8928 17.3959 20.7266 23.5816 14.5324L21.371 12.3218ZM1.70968 51.2903H51.2903V46.1613H1.70968V51.2903ZM51.2903 15.3872C51.2903 7.84582 45.1543 1.70983 37.6129 1.70983C34.3722 1.70983 31.229 2.86394 28.7627 4.95825L27.6566 3.65533C30.4314 1.29869 33.967 0.000156525 37.6129 0.000156525C46.0972 0.000156525 53 6.90292 53 15.3872C53 23.1918 47.1623 29.7612 39.4217 30.6691L39.2234 28.9715C46.1023 28.1645 51.2903 22.325 51.2903 15.3872ZM42.0478 4.18042C41.0665 3.19891 39.355 3.19891 38.3737 4.18042C37.8831 4.67108 37.6129 5.32326 37.6129 6.0174C37.6129 6.71154 37.8831 7.36373 38.3737 7.85355L40.0167 9.49664C40.5074 9.9873 41.1597 10.2574 41.8529 10.2574C42.547 10.2574 43.1993 9.9873 43.69 9.49664C44.1815 9.00682 44.4516 8.35443 44.4516 7.66029C44.4516 6.96636 44.1815 6.31396 43.6908 5.82415L42.0478 4.18042ZM42.4821 8.28869C42.1461 8.62469 41.5614 8.62469 41.2264 8.28869L39.5834 6.64475C39.4149 6.47738 39.3226 6.25428 39.3226 6.0174C39.3226 5.78053 39.4149 5.55659 39.5824 5.38901C39.75 5.22163 39.9739 5.12917 40.2108 5.12917C40.4476 5.12917 40.6707 5.22163 40.8382 5.38901L42.4812 7.03294C42.5041 7.05569 42.5256 7.07948 42.5458 7.10431C42.5625 7.12497 42.5781 7.14626 42.5928 7.16797C42.6237 7.21409 42.65 7.26272 42.6715 7.31343C42.7177 7.42175 42.7419 7.53924 42.7419 7.66029C42.7419 7.89716 42.6496 8.1211 42.4821 8.28869ZM43.5028 19.7555C43.0121 19.2649 42.7419 18.6125 42.7419 17.9183C42.7419 17.2242 43.0121 16.572 43.5028 16.0822L45.1458 14.4393C46.1262 13.4578 47.8385 13.4578 48.819 14.4393C49.3096 14.9299 49.5798 15.5821 49.5798 16.2763C49.5798 16.9696 49.3096 17.6218 48.819 18.1124L47.176 19.7555C46.6862 20.2462 46.0339 20.5162 45.3398 20.5162C44.6457 20.5162 43.9934 20.2462 43.5028 19.7555ZM46.3554 15.6479L44.7114 17.291C44.544 17.4586 44.4516 17.6817 44.4516 17.9183C44.4516 18.1552 44.544 18.3791 44.7114 18.5459C45.0475 18.8819 45.6321 18.8819 45.9672 18.5459L47.6111 16.9028C47.707 16.807 47.7782 16.6928 47.8216 16.5685C47.8541 16.4754 47.871 16.3767 47.871 16.2754C47.871 16.0386 47.7786 15.8146 47.6111 15.647C47.4435 15.4795 47.2196 15.3872 46.9827 15.3872C46.8882 15.3872 46.7958 15.4018 46.7083 15.4302C46.6406 15.4523 46.5757 15.4826 46.5149 15.5206C46.4578 15.5563 46.4042 15.5988 46.3554 15.6479ZM31.8796 9.55383L33.0883 10.7626L33.4327 10.4189C33.9235 9.92824 34.1935 9.27605 34.1935 8.58191C34.1935 7.88777 33.9235 7.23559 33.4327 6.74493C32.4523 5.76341 30.7401 5.76341 29.7595 6.74493L29.415 7.08929L30.6237 8.29808L30.9683 7.95351C31.3034 7.61772 31.888 7.61772 32.224 7.95351C32.3916 8.1211 32.4839 8.34504 32.4839 8.58191C32.4839 8.81878 32.3916 9.04189 32.224 9.20926L31.8796 9.55383ZM41.0323 15.3872C41.0323 16.3583 40.6168 17.2874 39.8928 17.9354L38.7524 16.6617C39.1149 16.337 39.3226 15.8729 39.3226 15.3872C39.3226 14.4443 38.5558 13.6775 37.6129 13.6775C37.1274 13.6775 36.6632 13.8852 36.3384 14.2477L35.0647 13.1074C35.7127 12.3834 36.6418 11.9679 37.6129 11.9679C39.4987 11.9679 41.0323 13.5014 41.0323 15.3872Z" fill="#F07F45"/>
</svg>
