<svg width="54" height="51" viewBox="0 0 54 51" fill="none" xmlns="http://www.w3.org/2000/svg">
    <path fill-rule="evenodd" clip-rule="evenodd" d="M42.7305 0H43.9044H48.3653C51.4788 0 54 2.52381 54 5.64055V37.3687V37.6037V44.7719V45.3594H53.9734C53.6826 48.5475 51.0459 51 47.7783 51H16.0829C14.2607 51 12.796 49.5338 12.796 47.7097V44.3018H15.1438V47.7097C15.1438 48.2358 15.5574 48.6498 16.0829 48.6498H47.7783C49.8529 48.6498 51.5028 47.0886 51.6426 45.0529C51.5771 44.0346 51.1833 43.3987 50.6691 42.9585C50.0584 42.4356 49.1777 42.1078 48.1673 41.9348C47.1704 41.7641 46.1511 41.7616 45.3653 41.8065C44.9762 41.8287 44.6532 41.8619 44.4302 41.8892C44.3188 41.9028 44.2329 41.9149 44.1768 41.9232L44.1393 41.9289L44.1155 41.9327L44.1027 41.9347L44.1013 41.935L42.7305 42.1697V40.7765V1.17512V0ZM51.6522 37.3687V37.6037V40.7628C50.6946 40.1264 49.5835 39.7929 48.5632 39.6182C47.3297 39.407 46.1186 39.4094 45.2316 39.4601L45.1364 39.4658L45.0783 39.4695V2.35023H48.3653C50.1821 2.35023 51.6522 3.82181 51.6522 5.64055V37.3687ZM12.6782 14.3363H11.6486L11.5143 15.3582L11.0273 19.0632C10.538 19.2257 10.0747 19.4193 9.62368 19.6421L6.70115 17.3992L5.88448 16.7724L5.15683 17.5008L3.1612 19.4985L2.43354 20.2269L3.05965 21.0444L5.30027 23.97C5.07768 24.4215 4.88434 24.8852 4.72199 25.375L1.02076 25.8625L0 25.997V27.0276V29.8479V30.852L0.990819 31.0086L4.71516 31.5973C4.8789 32.0947 5.07455 32.5651 5.30027 33.023L3.05965 35.9486L2.43354 36.7661L3.1612 37.4945L5.15683 39.4922L5.88448 40.2206L6.70114 39.5938L9.62368 37.3509C10.0747 37.5737 10.538 37.7672 11.0273 37.9298L11.5143 41.6348L11.6486 42.6566H12.6782H15.4955H16.5251L16.6594 41.6348L17.1464 37.9298C17.6356 37.7672 18.0989 37.5737 18.55 37.3509L21.4725 39.5938L22.2892 40.2206L23.0168 39.4922L25.0125 37.4945L25.7401 36.7661L25.114 35.9486L22.8734 33.023C23.096 32.5715 23.2893 32.1077 23.4517 31.618L27.1529 31.1305L28.1737 30.996V29.9654V27.1451V26.1145L27.1529 25.98L23.4517 25.4925C23.2893 25.0028 23.096 24.539 22.8734 24.0875L25.114 21.1619L25.7223 20.3677L25.0358 19.6401L23.0402 17.5249L22.313 16.7541L21.4725 17.3992L18.55 19.6421C18.0989 19.4193 17.6356 19.2257 17.1464 19.0632L16.6594 15.3582L16.5251 14.3363H15.4955H12.6782ZM13.2551 20.1302L13.7077 16.6866H14.466L14.9186 20.1302L15.0228 20.923L15.7978 21.1169C16.6175 21.3221 17.3396 21.6297 18.0826 22.0548L18.7601 22.4423L19.3793 21.9671L22.0605 19.9094L22.6425 20.5262L20.5508 23.2573L20.0761 23.8772L20.4632 24.5553C20.8878 25.2991 21.1952 26.022 21.4001 26.8426L21.5938 27.6183L22.3858 27.7226L25.8259 28.1757V28.9348L22.3858 29.3879L21.5938 29.4922L21.4001 30.2679C21.1952 31.0885 20.8878 31.8113 20.4632 32.5552L20.0761 33.2333L20.5508 33.8532L22.6247 36.561L22.0843 37.1019L19.3793 35.0259L18.7601 34.5507L18.0826 34.9382C17.3396 35.3632 16.6175 35.6709 15.7978 35.876L15.0228 36.07L14.9186 36.8628L14.466 40.3064H13.7077L13.2551 36.8628L13.1509 36.07L12.3759 35.876C11.5562 35.6709 10.8341 35.3632 10.091 34.9382L9.41359 34.5507L8.79438 35.0259L6.08933 37.1019L5.549 36.561L7.62286 33.8532L8.09759 33.2333L7.71048 32.5552C7.28587 31.8113 6.97852 31.0885 6.77359 30.2679L6.58517 29.5135L5.81782 29.3922L2.34781 28.8437V28.0582L5.78788 27.6051L6.57985 27.5008L6.77359 26.725C6.97852 25.9045 7.28587 25.1816 7.71048 24.4378L8.09759 23.7597L7.62286 23.1398L5.549 20.432L6.08933 19.8911L8.79438 21.9671L9.41359 22.4423L10.091 22.0548C10.8341 21.6297 11.5562 21.3221 12.3759 21.1169L13.1509 20.923L13.2551 20.1302ZM11.1521 28.5552C11.1521 26.9976 12.4135 25.735 13.9694 25.735C15.5254 25.735 16.7868 26.9976 16.7868 28.5552C16.7868 30.1128 15.5254 31.3755 13.9694 31.3755C12.4135 31.3755 11.1521 30.1128 11.1521 28.5552ZM13.9694 23.3847C11.1168 23.3847 8.80427 25.6996 8.80427 28.5552C8.80427 31.4108 11.1168 33.7257 13.9694 33.7257C16.8221 33.7257 19.1346 31.4108 19.1346 28.5552C19.1346 25.6996 16.8221 23.3847 13.9694 23.3847ZM15.0257 9.98842C15.0257 9.46231 15.4393 9.04833 15.9649 9.04833H41.0864V6.6981H15.9649C14.1426 6.6981 12.6779 8.16431 12.6779 9.98842V12.5737H15.0257V9.98842ZM22.1565 13.6846C22.473 13.7939 22.7849 13.9127 23.0918 14.0406L23.9947 11.8712C23.6426 11.7243 23.2849 11.5881 22.9219 11.4628L22.1565 13.6846ZM24.8858 14.9246C25.4665 15.2575 26.0241 15.6257 26.5557 16.0262L27.9675 14.1484C27.358 13.6892 26.7186 13.267 26.0525 12.8852L24.8858 14.9246ZM28.0761 17.3278C28.5551 17.7926 29.0052 18.2871 29.4235 18.8085L31.254 17.3368C30.7747 16.7394 30.2591 16.1728 29.7102 15.6402L28.0761 17.3278ZM30.5772 20.4451C30.9261 21.0116 31.2411 21.6016 31.5195 22.2123L33.6553 21.2364C33.3364 20.5368 32.9755 19.8609 32.5758 19.2119L30.5772 20.4451ZM32.236 24.0827C32.4342 24.7148 32.5954 25.3642 32.7168 26.0282L35.0262 25.605C34.8874 24.8457 34.703 24.1025 34.476 23.3787L32.236 24.0827ZM32.957 28.02C32.9768 28.3523 32.9869 28.6875 32.9869 29.0253C32.9869 29.4178 32.9729 29.807 32.9453 30.1924L35.2871 30.3603C35.3187 29.9191 35.3347 29.4739 35.3347 29.0253C35.3347 28.6407 35.3233 28.2588 35.3006 27.8799L32.957 28.02ZM32.6116 32.5001C32.4435 33.2661 32.2209 34.0122 31.948 34.7341L34.1438 35.566C34.4567 34.7383 34.7119 33.8828 34.9047 33.0045L32.6116 32.5001ZM30.9679 36.849C30.5896 37.5312 30.1632 38.1836 29.6932 38.8016L31.5611 40.2253C32.0991 39.5181 32.5873 38.7711 33.0206 37.9897L30.9679 36.849ZM28.1518 40.5518C27.5978 41.0968 27.0045 41.6022 26.3765 42.0635L27.7654 43.9583C28.4843 43.4303 29.1633 42.8518 29.7973 42.2283L28.1518 40.5518ZM24.4036 43.3044C24.0615 43.4866 23.712 43.6569 23.3556 43.8147L24.3053 45.964C24.7137 45.7832 25.1142 45.5881 25.5062 45.3794L24.4036 43.3044Z" fill="#F07F45"/>
</svg>
