<svg width="4" height="7" viewBox="0 0 4 7" fill="none" xmlns="http://www.w3.org/2000/svg">
    <path d="M0.00111575 3.34159C0.00111575 3.39516 0.0279014 3.45543 0.0680799 3.49561L3.18862 6.61614C3.22879 6.65632 3.28906 6.68311 3.34263 6.68311C3.39621 6.68311 3.45647 6.65632 3.49665 6.61614L3.83147 6.28132C3.87165 6.24114 3.89844 6.18087 3.89844 6.1273C3.89844 6.07373 3.87165 6.01346 3.83147 5.97328L1.19978 3.34159L3.83147 0.709891C3.87165 0.669712 3.89844 0.609444 3.89844 0.555872C3.89844 0.495605 3.87165 0.442033 3.83147 0.401855L3.49665 0.0670333C3.45647 0.0268546 3.3962 6.91853e-05 3.34263 6.919e-05C3.28906 6.91947e-05 3.22879 0.0268546 3.18862 0.0670334L0.0680799 3.18757C0.0279013 3.22775 0.00111574 3.28802 0.00111575 3.34159Z" fill="black"/>
</svg>
