<svg width="25" height="20" viewBox="0 0 25 20" fill="none" xmlns="http://www.w3.org/2000/svg">
    <path d="M6.27934 15.8515C8.00078 17.1339 10.0743 17.775 12.5 17.775C14.9257 17.775 16.9797 17.1339 18.662 15.8515C20.3834 14.5692 21.2441 13.0246 21.2441 11.2176C21.2441 9.41071 20.3834 7.88065 18.662 6.62746C16.9797 5.34513 14.9257 4.70396 12.5 4.70396C10.0743 4.70396 8.00078 5.34513 6.27934 6.62746C4.59703 7.88065 3.75587 9.41071 3.75587 11.2176C3.75587 13.0246 4.59703 14.5692 6.27934 15.8515ZM4.51878 5.27227C6.7097 3.64021 9.37011 2.82418 12.5 2.82418C15.6299 2.82418 18.2903 3.64021 20.4812 5.27227C22.6721 6.90433 23.7676 8.88612 23.7676 11.2176C23.7676 13.5491 22.6721 15.5309 20.4812 17.163C18.2903 18.7951 15.6299 19.6111 12.5 19.6111C9.37011 19.6111 6.7097 18.7951 4.51878 17.163C2.32786 15.5309 1.23239 13.5491 1.23239 11.2176C1.23239 8.88612 2.32786 6.90433 4.51878 5.27227ZM13.1455 6.58375V11.5236L18.1338 13.7532L17.1362 14.8898L11.2676 12.1794V6.58375H13.1455ZM7.39437 2.29959L1.58451 5.84058L0 4.44167L5.75117 0.900679L7.39437 2.29959ZM25 4.44167L23.4155 5.84058L17.6056 2.16844L19.2488 0.769531L25 4.44167Z" fill="#F07F45"/>
</svg>
