<svg width="18" height="21" viewBox="0 0 18 21" fill="none" xmlns="http://www.w3.org/2000/svg">
    <path d="M17.2031 4.45312L13.5469 0.796876C13.1133 0.363281 12.2461 0 11.625 0H1.125C0.503906 0 0 0.503907 0 1.125V19.875C0 20.4961 0.503906 21 1.125 21H16.875C17.4961 21 18 20.4961 18 19.875V6.375C18 5.75391 17.6367 4.88672 17.2031 4.45312ZM12 1.59375C12.1992 1.66406 12.3984 1.76953 12.4805 1.85156L16.1484 5.51953C16.2305 5.60156 16.3359 5.80078 16.4062 6H12V1.59375ZM16.5 19.5H1.5V1.5H10.5V6.375C10.5 6.99609 11.0039 7.5 11.625 7.5H16.5V19.5ZM4.5 9.375V10.125C4.5 10.3359 4.66406 10.5 4.875 10.5H13.125C13.3359 10.5 13.5 10.3359 13.5 10.125V9.375C13.5 9.16406 13.3359 9 13.125 9H4.875C4.66406 9 4.5 9.16406 4.5 9.375ZM13.125 12H4.875C4.66406 12 4.5 12.1641 4.5 12.375V13.125C4.5 13.3359 4.66406 13.5 4.875 13.5H13.125C13.3359 13.5 13.5 13.3359 13.5 13.125V12.375C13.5 12.1641 13.3359 12 13.125 12ZM13.125 15H4.875C4.66406 15 4.5 15.1641 4.5 15.375V16.125C4.5 16.3359 4.66406 16.5 4.875 16.5H13.125C13.3359 16.5 13.5 16.3359 13.5 16.125V15.375C13.5 15.1641 13.3359 15 13.125 15Z" fill="#F07F45"/>
</svg>
