<svg xmlns="http://www.w3.org/2000/svg" viewBox="0 0 512.11 476.18"><defs><style>.cls-1{fill:#1a1a18;fill-rule:evenodd;}.cls-2{fill:#2f2483;}.cls-3{fill:#f07f46;}.cls-4{fill:#af2904;}.cls-5{fill:#9184be;}</style></defs><g id="Слой_2" data-name="Слой 2"><g id="_1" data-name="1"><path class="cls-1" d="M398.76,351.76v11.69h7.57v-5.34a37.37,37.37,0,0,1,6.23-.46c5,0,7,2.11,7,5.72v3.76c-1.12-.07-2.4-.16-3.74-.16-13.94,0-19.57,4.79-19.57,13.66,0,6.59,4.19,10.9,11.17,10.9,6.67,0,11.09-2.75,13.27-7.92.82,5.72,4.27,8.31,11.92,7.29v-7.37c-3.23.55-4.73-1-4.73-4.31V363.37c0-7.61-3.67-12.47-14.77-12.47a113.78,113.78,0,0,0-14.39.86ZM491.5,279h7.57v10.5H491.5c-4.2,0-5.7-2.19-5.7-5.41,0-3,1.5-5.09,5.7-5.09Zm-1.95-6.83c-8.48,0-12.3,4.55-12.3,10.2,0,5.17,3,8.54,8.1,9.57-4,.46-8,3.13-8,12.07h-4.2v7.38h16.42V304h-3.9c0-7.92,2.77-8.94,6.6-8.94h6.82V304h-3.9v7.38h16.94V304h-4.72V279.51h4.72v-7.37Zm-57.52.08V283.9h7.57v-5.33a37.17,37.17,0,0,1,6.22-.47c5,0,7.05,2.12,7.05,5.73v3.76c-1.12-.08-2.4-.15-3.75-.15-13.94,0-19.56,4.78-19.56,13.64,0,6.59,4.2,10.91,11.17,10.91,6.67,0,11.09-2.75,13.26-7.93.83,5.73,4.27,8.32,11.92,7.3V304c-3.22.55-4.72-1-4.72-4.31V283.83c0-7.61-3.67-12.47-14.77-12.47a111.85,111.85,0,0,0-14.39.86ZM449.35,293c1.34,0,2.47.08,3.52.16v2.67c0,5.8-4.27,9.17-9.45,9.17-3.37,0-5.31-1.88-5.31-5.17,0-4.55,3.66-6.83,11.24-6.83Zm-69.14-20.86v7.37h4.73V304h-4.73v7.38h13.05V294.73H407.2v16.63h13V304h-4.65V279.51h4.65v-7.37h-13v15.45H393.26V272.14Zm-49.63,0v7.37h4.72V304h-4.72v7.38h13V294.73h13.94v16.63h13V304h-4.65V279.51h4.65v-7.37h-13v15.45H343.62V272.14Zm-25-.78c-11.1,0-17.84,8.23-17.84,20.31,0,12.39,6.82,20.47,17.69,20.47,8.09,0,14.61-4.94,16.27-13.49h-8.63c-.9,4-3.59,6.28-7.79,6.28-5.7,0-8.62-3.77-9-11.38h26c.67-11.76-5.09-22.19-16.71-22.19Zm-.3,6.66c5,0,8,4.08,8.16,9.57H296.51c.76-6.28,3.6-9.57,8.78-9.57Zm-76.7-5.88v7.37h4.72V304h-4.72v7.38h16.19V304h-3.9v-18.9c0-1.49,0-3.68-.15-5.33a54.58,54.58,0,0,0,1.35,5.33l8.84,26.28h5.93l8.91-26.75c.46-1.57.91-3.45,1.28-5.1-.15,1.65-.22,3.53-.22,5.1V304h-3.9v7.38h16.19V304h-4.72V279.51h4.72v-7.37h-16l-7.87,23.92a37.26,37.26,0,0,0-1.2,5.65c-.3-1.81-.83-4.24-1.2-5.65l-8-23.92Zm-25-.78c-11.1,0-17.85,8.23-17.85,20.31,0,12.39,6.83,20.47,17.7,20.47,8.09,0,14.61-4.94,16.26-13.49h-8.62c-.9,4-3.6,6.28-7.79,6.28-5.7,0-8.62-3.77-9-11.38h26c.68-11.76-5.09-22.19-16.71-22.19Zm-.3,6.66c5,0,8,4.08,8.17,9.57H194.55c.74-6.28,3.59-9.57,8.77-9.57Zm-42.35.63c6,0,8.93,4.94,8.93,13.1s-2.93,13.1-8.93,13.1c-6.52,0-9.22-5.81-9.22-12.86,0-8.79,3.45-13.34,9.22-13.34Zm-22.26-6.51v7.37h4.73v41h-4.73v7.38h17.77v-7.38h-4.73V303.44c1.65,4.7,5.7,8.7,11.47,8.7,9.37,0,15.37-8.23,15.37-20.39s-6-20.39-15.37-20.39c-6.07,0-9.74,3.92-11.47,8.7v-7.92Zm-29.94,6.19h6.15c4.27,0,5.7,2,5.7,4.87s-1.43,5.26-5.7,5.26h-6.15V278.33Zm0,15.54h6.67c4.65,0,6.6,2.43,6.6,5.72s-2,5.5-6.67,5.5h-6.6V293.87Zm-13-21.73v7.37h4.72V304H95.73v7.38h22.49c8.09,0,12.74-4.79,12.74-10.67,0-4.86-3-8.87-8.92-9.88,5.1-1.34,7.5-4.71,7.5-9,0-5-3.76-9.65-12-9.65Zm-24.89,6.59c5.84,0,9,4.78,9,12.94s-3.15,13-9,13-9-4.71-9-13,3.15-12.94,9-12.94Zm0-7.37c-10.35,0-17.4,7.61-17.4,20.31,0,12.94,7.05,20.47,17.4,20.47s17.31-7.53,17.31-20.47c0-12.7-7-20.31-17.31-20.31ZM25.56,255.67C9.07,255.67,0,268.06,0,283.9s9.6,28.24,25.26,28.24a88.31,88.31,0,0,0,19.12-2.43V295.36H35.3v7.21a41.65,41.65,0,0,1-10,1.18c-10.42,0-15.52-8.16-15.52-19.85S14.7,264,25.26,264a46.08,46.08,0,0,1,10,1.18v7.29h9.08V258.1a81.57,81.57,0,0,0-18.82-2.43ZM319.32,357.88h6.14c4.28,0,5.7,2,5.7,4.86s-1.42,5.26-5.7,5.26h-6.14V357.88Zm0,15.53H326c4.65,0,6.6,2.43,6.6,5.72s-1.95,5.5-6.68,5.5h-6.59V373.41Zm-38.24-15.14c5.85,0,9,4.79,9,13s-3.15,13-9,13-9-4.7-9-13,3.14-13,9-13ZM177.4,351.76v11.69H185v-5.34a37.16,37.16,0,0,1,6.22-.46c5,0,7,2.11,7,5.72v3.76c-1.12-.07-2.4-.16-3.74-.16-13.95,0-19.57,4.79-19.57,13.66,0,6.59,4.2,10.9,11.17,10.9,6.67,0,11.09-2.75,13.27-7.92.82,5.72,4.27,8.31,11.91,7.29v-7.37c-3.22.55-4.71-1-4.71-4.31V363.37c0-7.61-3.68-12.47-14.77-12.47a113.83,113.83,0,0,0-14.4.86Zm-97.94-.07v7.37h3.83L94,392.63l-1.05,3c-1.27,3.45-4,4.54-8.7,4.54v7.77c9.23-.07,15.07-1.49,19-14l11.47-34.9h3.9v-7.37H102.7v7.37h3.9l-6.22,20a60.92,60.92,0,0,0-1.2,6.43,56.06,56.06,0,0,0-1.13-6.43l-6.06-20h3.89v-7.37Zm46.13,0v7.37h4.72v24.47h-4.72v7.37h17.24v-7.37h-4.2V359.06h13.94v24.47h-4.19v7.37h17.16v-7.37h-4.65V359.06h4.65v-7.37Zm69.14,20.86c1.34,0,2.46.07,3.51.15v2.67c0,5.81-4.27,9.18-9.44,9.18-3.37,0-5.32-1.89-5.32-5.18,0-4.55,3.67-6.82,11.25-6.82Zm24.08-20.86v7.37h4.72v24.47h-4.72v7.37h17.91v-7.37h-4.87V359.06h4.49v-7.37Zm21,0h16.8v7.37h-4l-11.17,11.29,11.24,13.18h4.5v7.37h-9.67l-15.29-19.84,11.32-12h-3.68v-7.37Zm41.29-.79c-10.34,0-17.38,7.61-17.38,20.32,0,12.94,7,20.47,17.38,20.47s17.32-7.53,17.32-20.47c0-12.71-7-20.32-17.32-20.32Zm25.2.79v7.37H311v24.47h-4.72v7.37h22.48c8.1,0,12.75-4.78,12.75-10.66,0-4.87-3-8.86-8.92-9.89,5.09-1.33,7.49-4.71,7.49-9,0-5-3.75-9.64-12-9.64Zm44,0v7.37H355v24.47H350.3v7.37h17.91v-7.37h-4.87V359.06h4.5v-7.37Zm21,0h16.79v7.37H384l-11.17,11.29,11.25,13.18h4.49v7.37h-9.67l-15.29-19.84,11.32-12h-3.67v-7.37Zm44.79,20.86c1.35,0,2.47.07,3.52.15v2.67c0,5.81-4.27,9.18-9.45,9.18-3.37,0-5.32-1.89-5.32-5.18C404.83,374.82,408.51,372.55,416.08,372.55Z"/><path class="cls-1" d="M1.65,469H4.1V453H14.37v16h2.45V450.84H1.65V469Zm21.94,7.21H26v-8.8a10.46,10.46,0,0,0-.11-1.58H26a6.64,6.64,0,0,0,6,3.6c4.72,0,8.1-3.75,8.1-9.52,0-5.58-3-9.47-7.89-9.47a6.75,6.75,0,0,0-6.3,3.74h-.08a8.76,8.76,0,0,0,.11-1.4v-1.91H23.59v25.34ZM26,460c0-5.16,2.84-7.32,5.87-7.32,3.39,0,5.77,2.85,5.77,7.28,0,4.62-2.67,7.28-5.88,7.28C28,467.2,26,463.6,26,460Zm18.55-.15a9.57,9.57,0,1,0,9.55-9.4,9.44,9.44,0,0,0-9.55,9.4Zm2.52,0a7,7,0,1,1,14.09,0,7.05,7.05,0,1,1-14.09,0ZM69.16,469h2.35L80.41,457c.68-1,1.8-2.45,1.84-2.63h.07c0,.14-.11,1.58-.11,2.63V469h2.41V450.84H82.28l-8.9,11.89c-.72,1-1.8,2.56-1.87,2.71h-.08c0-.08.11-1.59.11-2.71V450.84H69.16V469Zm20.39-2.2a9,9,0,0,0,6.31,2.63c3.5,0,6.74-1.87,6.74-5.55a4.25,4.25,0,0,0-3.42-4.36v-.07a4.16,4.16,0,0,0,2.77-4.15c0-3.24-2.56-4.86-5.91-4.86a9.08,9.08,0,0,0-5.87,2l1.08,1.73a6.94,6.94,0,0,1,4.43-1.62c2.23,0,3.75,1,3.75,3.06s-1.59,3.06-4,3.06H93.48v1.95h2.2c2.88,0,4.4,1.15,4.4,3.21,0,2.41-2.17,3.53-4.36,3.53a6.89,6.89,0,0,1-4.87-2.23l-1.3,1.69Zm18.59,2.2h6.92c4.07,0,6.56-2,6.56-5.08a4.31,4.31,0,0,0-3.67-4.36v-.08a4,4,0,0,0,2.73-4c0-3-2.3-4.61-6-4.61h-6.56V469Zm2.45-10.27v-6h3.71c2.56,0,3.86.94,3.86,2.89s-1.26,3.1-3.71,3.1Zm0,8.36v-6.49h4.11c2.81,0,4.4,1.15,4.4,3.28,0,1.95-1.37,3.21-4.36,3.21ZM126,459.81a9.57,9.57,0,1,0,9.56-9.4,9.45,9.45,0,0,0-9.56,9.4Zm2.53,0a7,7,0,1,1,14.09,0,7.05,7.05,0,1,1-14.09,0Zm23.95,7.07c2.71-4.08,3-10.16,3-12.87v-1.08h6.34v13.95Zm-4.86,0v6.41h2.34V469h14.49v4.32h2.34v-6.41H164.2v-16H153v3c0,2.45-.11,9.08-3.18,13.08Zm22.62-7a9.2,9.2,0,0,0,9.52,9.48,9.69,9.69,0,0,0,7.06-2.88l-1.11-1.84a8.09,8.09,0,0,1-5.81,2.49,7.28,7.28,0,0,1-.07-14.56,7.66,7.66,0,0,1,5.3,2.23l1.26-1.84a9.17,9.17,0,0,0-6.63-2.59,9.27,9.27,0,0,0-9.52,9.51Zm26.2,9.05h2.45V453h6.63v-2.16H189.81V453h6.6v16Zm13.76,0h6.92c4.07,0,6.56-2,6.56-5.08a4.32,4.32,0,0,0-3.68-4.36v-.08a4,4,0,0,0,2.74-4c0-3-2.31-4.61-6-4.61h-6.56V469Zm2.45-10.27v-6h3.71c2.56,0,3.86.94,3.86,2.89s-1.27,3.1-3.72,3.1Zm0,8.36v-6.49h4.11c2.81,0,4.39,1.15,4.39,3.28,0,1.95-1.36,3.21-4.36,3.21ZM228,459.81a9.57,9.57,0,1,0,9.55-9.4,9.44,9.44,0,0,0-9.55,9.4Zm2.52,0a7,7,0,1,1,14.09,0,7.05,7.05,0,1,1-14.09,0ZM261.65,469h2.45V453h8.36v-2.13H261.65V469Zm13.44-9.16a9.57,9.57,0,1,0,9.55-9.4,9.44,9.44,0,0,0-9.55,9.4Zm2.52,0a7,7,0,1,1,14.09,0,7.05,7.05,0,1,1-14.09,0Zm20.93,0c0,5.63,4.11,9.3,9.77,9.55v6.82h2.38v-6.82c5.66-.25,9.76-3.92,9.76-9.55s-4.1-9.11-9.76-9.37v-6.7h-2.38v6.7c-5.66.26-9.77,3.86-9.77,9.37Zm12.15,7.43V452.61c4.29.21,7.28,2.88,7.28,7.2s-3,7.17-7.28,7.43ZM301,459.81c0-4.32,3-7,7.28-7.2v14.63c-4.29-.26-7.28-3-7.28-7.43Zm25,16.37h2.45v-8.8a10.46,10.46,0,0,0-.11-1.58h.08a6.62,6.62,0,0,0,6,3.6c4.72,0,8.11-3.75,8.11-9.52,0-5.58-3-9.47-7.89-9.47a6.75,6.75,0,0,0-6.31,3.74h-.07a9.61,9.61,0,0,0,.1-1.4v-1.91H326v25.34ZM328.41,460c0-5.16,2.85-7.32,5.88-7.32,3.38,0,5.76,2.85,5.76,7.28,0,4.62-2.67,7.28-5.87,7.28-3.72,0-5.77-3.6-5.77-7.24Zm18.55-.15a9.57,9.57,0,1,0,9.55-9.4,9.44,9.44,0,0,0-9.55,9.4Zm2.52,0a7.05,7.05,0,1,1,14.1,0,7.06,7.06,0,1,1-14.1,0ZM371.61,469h2.45v-8.29H377l6,8.29h3l-7-9.44v-.08l6.3-8.61h-2.88l-5.44,7.68h-2.88v-7.68h-2.45V469Zm17-4.87c0,3.5,3.07,5.3,6.13,5.3a6.7,6.7,0,0,0,6.13-4.07h.07a9.39,9.39,0,0,0-.11,1.51V469h2.34V457.36c0-4.54-2.41-6.95-6.77-6.95a10.6,10.6,0,0,0-6.42,2l1.12,1.88a8.79,8.79,0,0,1,5.15-1.73c2.56,0,4.47,1.19,4.47,4.68v.51H399.6c-3.46,0-11,.36-11,6.3Zm2.49-.21c0-4,5.77-4.15,8.58-4.15h1v.83c0,3.17-2.05,6.78-5.55,6.78-2.7,0-4.07-1.77-4.07-3.46Zm18.66,12.29h2.45v-8.8a10.46,10.46,0,0,0-.11-1.58h.07a6.64,6.64,0,0,0,6,3.6c4.72,0,8.11-3.75,8.11-9.52,0-5.58-3-9.47-7.9-9.47a6.75,6.75,0,0,0-6.3,3.74H412a9.61,9.61,0,0,0,.1-1.4v-1.91h-2.34v25.34ZM412.1,460c0-5.16,2.85-7.32,5.87-7.32,3.39,0,5.77,2.85,5.77,7.28,0,4.62-2.67,7.28-5.88,7.28-3.71,0-5.76-3.6-5.76-7.24Zm23.81,9h2.45V453H445v-2.16H429.32V453h6.59v16Zm11.78-9.16a9.57,9.57,0,1,0,9.55-9.4,9.44,9.44,0,0,0-9.55,9.4Zm2.52,0a7.05,7.05,0,1,1,14.1,0,7.06,7.06,0,1,1-14.1,0ZM472.33,469h2.45v-8.22h10.6V469h2.45V450.84h-2.45v7.75h-10.6v-7.75h-2.45V469ZM493,464.1c0,3.5,3.07,5.3,6.13,5.3a6.7,6.7,0,0,0,6.13-4.07h.07a9.39,9.39,0,0,0-.11,1.51V469h2.34V457.36c0-4.54-2.41-6.95-6.77-6.95a10.6,10.6,0,0,0-6.42,2l1.12,1.88a8.81,8.81,0,0,1,5.15-1.73c2.56,0,4.47,1.19,4.47,4.68v.51H504c-3.46,0-11,.36-11,6.3Zm2.49-.21c0-4,5.77-4.15,8.58-4.15h1v.83c0,3.17-2.05,6.78-5.55,6.78C496.87,467.35,495.5,465.58,495.5,463.89Z"/><polygon class="cls-2" points="160.01 0 215.24 55.54 270.51 0 160.01 0"/><polygon class="cls-3" points="161.81 109.24 215.24 55.54 160.01 0 50.77 109.24 161.81 109.24"/><polygon class="cls-4" points="215.33 163.02 160.01 218.47 50.77 109.24 161.81 109.24 215.33 163.02"/><polygon class="cls-2" points="377.8 0.14 160.01 218.47 270.51 218.47 488.3 0.14 377.8 0.14"/><polygon class="cls-5" points="270.51 0 215.24 55.54 268.81 109.41 324.29 53.78 270.51 0"/></g></g></svg>