<svg width="249" height="56" viewBox="0 0 249 56" fill="none" xmlns="http://www.w3.org/2000/svg">
    <g clip-path="url(#clip0_129:4)">
        <path fill-rule="evenodd" clip-rule="evenodd" d="M219.956 34.2919V37.2905H221.904V35.9321C222.417 35.8552 222.853 35.804 223.494 35.804C224.776 35.804 225.288 36.3422 225.288 37.2649V38.2388C225.006 38.2131 224.673 38.1875 224.34 38.1875C220.776 38.1875 219.315 39.4177 219.315 41.6987C219.315 43.3903 220.392 44.4923 222.186 44.4923C223.904 44.4923 225.032 43.8003 225.596 42.4676C225.801 43.9285 226.698 44.5948 228.647 44.3385V42.442C227.826 42.5701 227.442 42.1857 227.442 41.3399V37.2905C227.442 35.3427 226.493 34.0868 223.648 34.0868C222.417 34.0612 221.212 34.1125 219.956 34.2919ZM243.72 15.6337H245.669V18.3248H243.72C242.644 18.3248 242.259 17.761 242.259 16.9408C242.259 16.1719 242.644 15.6337 243.72 15.6337ZM243.233 13.8653C241.054 13.8653 240.08 15.0186 240.08 16.4795C240.08 17.8122 240.849 18.658 242.157 18.9399C241.131 19.0681 240.106 19.7344 240.106 22.0411H239.029V23.9376H243.233V22.0411H242.234C242.234 20.0163 242.951 19.7601 243.925 19.7601H245.669V22.0411H244.669V23.9376H249.001V22.0411H247.796V15.7619H249.001V13.8653H243.233ZM228.493 13.8909V16.8896H230.441V15.5312C230.928 15.4543 231.39 15.4031 232.03 15.4031C233.312 15.4031 233.825 15.9413 233.825 16.8639V17.8379C233.543 17.8122 233.21 17.7866 232.876 17.7866C229.313 17.7866 227.852 19.0168 227.852 21.2722C227.852 22.9637 228.929 24.0658 230.723 24.0658C232.441 24.0658 233.569 23.3738 234.133 22.0411C234.338 23.5019 235.235 24.1683 237.183 23.912V22.0411C236.363 22.1692 235.978 21.7848 235.978 20.939V16.8639C235.978 14.9161 235.03 13.6603 232.184 13.6603C230.954 13.6859 229.749 13.7372 228.493 13.8909ZM232.928 19.2218C233.261 19.2218 233.569 19.2475 233.825 19.2731V19.9651C233.825 21.4516 232.723 22.323 231.415 22.323C230.544 22.323 230.057 21.836 230.057 20.9903C230.031 19.8113 230.979 19.2218 232.928 19.2218ZM215.188 13.8653V15.7619H216.393V22.0411H215.188V23.9376H218.52V19.6575H222.084V23.912H225.416V22.0411H224.237V15.7619H225.416V13.8653H222.084V17.8379H218.52V13.8653H215.188ZM202.472 13.8653V15.7619H203.677V22.0411H202.472V23.9376H205.805V19.6575H209.368V23.912H212.701V22.0411H211.522V15.7619H212.701V13.8653H209.368V17.8379H205.805V13.8653H202.472ZM196.064 13.6859C193.218 13.6859 191.5 15.7875 191.5 18.8887C191.5 22.0667 193.244 24.1427 196.038 24.1427C198.114 24.1427 199.781 22.8868 200.217 20.6827H198.012C197.781 21.7079 197.089 22.2974 196.012 22.2974C194.551 22.2974 193.808 21.3234 193.705 19.3756H200.37C200.524 16.3514 199.037 13.6859 196.064 13.6859ZM195.987 15.3774C197.268 15.3774 198.037 16.4282 198.089 17.8379H193.756C193.936 16.2232 194.654 15.3774 195.987 15.3774ZM176.324 13.8653V15.7619H177.529V22.0411H176.324V23.9376H180.477V22.0411H179.477V17.1971C179.477 16.8127 179.477 16.2488 179.426 15.8388C179.503 16.2745 179.657 16.8127 179.759 17.1971L182.015 23.9376H183.528L185.809 17.0946C185.937 16.6845 186.04 16.1976 186.143 15.7875C186.117 16.1976 186.091 16.6845 186.091 17.0946V22.0411H185.091V23.9376H189.244V22.0411H188.04V15.7619H189.244V13.8653H185.143L183.117 19.9907C183.015 20.3495 182.861 20.9646 182.81 21.4516C182.733 20.9903 182.605 20.3752 182.502 19.9907L180.477 13.8653H176.324ZM169.915 13.6859C167.07 13.6859 165.352 15.7875 165.352 18.8887C165.352 22.0667 167.095 24.1427 169.889 24.1427C171.966 24.1427 173.632 22.8868 174.068 20.6827H171.863C171.633 21.7079 170.941 22.2974 169.864 22.2974C168.403 22.2974 167.659 21.3234 167.557 19.3756H174.222C174.376 16.3514 172.914 13.6859 169.915 13.6859ZM169.838 15.3774C171.12 15.3774 171.889 16.4282 171.94 17.8379H167.608C167.787 16.2232 168.531 15.3774 169.838 15.3774ZM158.994 15.5568C160.532 15.5568 161.276 16.8127 161.276 18.9143C161.276 21.0159 160.532 22.2717 158.994 22.2717C157.328 22.2717 156.636 20.7852 156.636 18.9655C156.636 16.7102 157.507 15.5568 158.994 15.5568ZM153.277 13.8653V15.7619H154.482V26.2699H153.277V28.1665H157.841V26.2699H156.636V21.8873C157.072 23.0919 158.097 24.117 159.584 24.117C161.994 24.117 163.532 22.0154 163.532 18.8887C163.532 15.7619 161.994 13.6603 159.584 13.6603C158.02 13.6603 157.097 14.6598 156.636 15.89V13.8653H153.277ZM145.612 15.4543H147.202C148.304 15.4543 148.663 15.9669 148.663 16.7102C148.663 17.4534 148.304 18.0685 147.202 18.0685H145.612V15.4543ZM145.612 19.4525H147.33C148.509 19.4525 149.022 20.0676 149.022 20.9134C149.022 21.7848 148.535 22.323 147.304 22.323H145.612V19.4525ZM142.28 13.8653V15.7619H143.485V22.0411H142.28V23.9376H148.048C150.124 23.9376 151.304 22.7074 151.304 21.1953C151.304 19.9395 150.534 18.9143 149.022 18.658C150.329 18.3248 150.945 17.4534 150.945 16.3514C150.945 15.0699 149.97 13.8909 147.868 13.8909H142.28V13.8653ZM135.896 15.5568C137.383 15.5568 138.204 16.7871 138.204 18.863C138.204 20.9903 137.409 22.1948 135.896 22.1948C134.41 22.1948 133.589 20.9903 133.589 18.863C133.589 16.7871 134.384 15.5568 135.896 15.5568ZM135.896 13.6859C133.256 13.6859 131.436 15.6337 131.436 18.8887C131.436 22.1948 133.23 24.1427 135.896 24.1427C138.537 24.1427 140.331 22.2205 140.331 18.8887C140.331 15.6337 138.537 13.6859 135.896 13.6859ZM124.283 9.66211C120.054 9.66211 117.721 12.8401 117.721 16.8896C117.721 20.939 120.182 24.117 124.207 24.117C125.745 24.117 127.59 23.8607 129.103 23.5019V19.8369H126.77V21.6822C125.975 21.8873 125.053 21.9898 124.207 21.9898C121.54 21.9898 120.233 19.8882 120.233 16.9152C120.233 13.9166 121.515 11.815 124.207 11.815C125.078 11.815 126.001 11.9431 126.77 12.1225V13.9935H129.103V10.2772C127.59 9.89277 125.796 9.66211 124.283 9.66211ZM199.576 35.8552H201.139C202.242 35.8552 202.601 36.3678 202.601 37.1111C202.601 37.8543 202.242 38.4694 201.139 38.4694H199.576V35.8552ZM199.576 39.8278H201.293C202.472 39.8278 202.985 40.4429 202.985 41.2887C202.985 42.1601 202.472 42.6983 201.268 42.6983H199.576V39.8278ZM189.783 35.9578C191.295 35.9578 192.09 37.188 192.09 39.2639C192.09 41.3912 191.295 42.5958 189.783 42.5958C188.296 42.5958 187.476 41.3912 187.476 39.2639C187.476 37.188 188.296 35.9578 189.783 35.9578ZM163.199 34.2919V37.2905H165.147V35.9321C165.66 35.8552 166.095 35.804 166.736 35.804C168.018 35.804 168.531 36.3422 168.531 37.2649V38.2388C168.249 38.2131 167.915 38.1875 167.582 38.1875C164.019 38.1875 162.558 39.4177 162.558 41.6987C162.558 43.3903 163.634 44.4923 165.429 44.4923C167.146 44.4923 168.274 43.8003 168.838 42.4676C169.043 43.9285 169.941 44.5948 171.889 44.3385V42.442C171.069 42.5701 170.684 42.1857 170.684 41.3399V37.2905C170.684 35.3427 169.736 34.0868 166.89 34.0868C165.66 34.0612 164.48 34.1125 163.199 34.2919ZM138.101 34.2662V36.1628H139.075L141.818 44.7742L141.536 45.5431C141.203 46.4401 140.511 46.6964 139.306 46.6964V48.6955C141.664 48.6699 143.177 48.3111 144.177 45.1074L147.125 36.1628H148.125V34.2662H144.049V36.1628H145.048L143.459 41.2887C143.356 41.7244 143.228 42.3907 143.151 42.9289C143.074 42.3651 142.972 41.6987 142.869 41.2887L141.306 36.1628H142.305V34.2662H138.101ZM149.919 34.2662V36.1628H151.124V42.442H149.919V44.3385H154.329V42.442H153.252V36.1628H156.815V42.442H155.739V44.3385H160.148V42.442H158.969V36.1628H160.148V34.2662H149.919ZM167.659 39.5971C167.992 39.5971 168.3 39.6228 168.556 39.6484V40.3404C168.556 41.8269 167.454 42.6983 166.147 42.6983C165.275 42.6983 164.788 42.2113 164.788 41.3655C164.762 40.1866 165.711 39.5971 167.659 39.5971ZM173.812 34.2662V36.1628H175.017V42.442H173.812V44.3385H178.401V42.442H177.144V36.1628H178.298V34.2662H173.812ZM179.195 34.2662H183.502V36.1628H182.477L179.605 39.0589L182.477 42.442H183.63V44.3385H181.144L177.221 39.2639L180.118 36.1884H179.195V34.2662ZM189.783 34.0612C187.142 34.0612 185.322 36.009 185.322 39.2639C185.322 42.5701 187.117 44.5179 189.783 44.5179C192.423 44.5179 194.218 42.5958 194.218 39.2639C194.218 36.009 192.449 34.0612 189.783 34.0612ZM196.243 34.2662V36.1628H197.448V42.442H196.243V44.3385H202.011C204.088 44.3385 205.267 43.1083 205.267 41.5962C205.267 40.3404 204.498 39.3152 202.985 39.0589C204.293 38.7257 204.908 37.8543 204.908 36.7523C204.908 35.4708 203.959 34.2919 201.832 34.2919H196.243V34.2662ZM207.523 34.2662V36.1628H208.728V42.442H207.523V44.3385H212.112V42.442H210.855V36.1628H212.009V34.2662H207.523ZM212.906 34.2662H217.213V36.1628H216.188L213.316 39.0589L216.188 42.442H217.341V44.3385H214.855L210.932 39.2639L213.829 36.1884H212.881V34.2662H212.906ZM224.391 39.5971C224.724 39.5971 225.032 39.6228 225.288 39.6484V40.3404C225.288 41.8269 224.186 42.6983 222.879 42.6983C222.007 42.6983 221.52 42.2113 221.52 41.3655C221.52 40.1866 222.443 39.5971 224.391 39.5971Z" fill="black"/>
        <path d="M27.9941 0L42.1707 14.2243L56.3216 0H27.9941Z" fill="#312783"/>
        <path d="M28.4557 27.9872L42.1708 14.2243L27.9942 0L0 27.9872H28.4557Z" fill="#F08046"/>
        <path d="M42.1964 41.7754L27.9942 55.9996L0 27.9868H28.4557L42.1964 41.7754Z" fill="#B02A08"/>
        <path d="M83.8288 0.0253906L27.9941 55.9997H56.3216L112.156 0.0253906H83.8288Z" fill="#312783"/>
        <path d="M56.3228 0L42.1719 14.2243L55.887 28.0384L70.1148 13.7886L56.3228 0Z" fill="#9185BE"/>
    </g>
    <defs>
        <clipPath id="clip0_129:4">
            <rect width="249" height="56" fill="white"/>
        </clipPath>
    </defs>
</svg>
