<svg width="19" height="13" viewBox="0 0 19 13" fill="none" xmlns="http://www.w3.org/2000/svg">
    <path d="M9.5 5.71464L17.1268 1.94192H1.87324L9.5 5.71464ZM17.1268 10.9682V3.45806L9.5 7.19552L1.87324 3.45806V10.9682H17.1268ZM17.1268 0.425781C17.6322 0.425781 18.0634 0.57857 18.4202 0.884149C18.8067 1.18973 19 1.54232 19 1.94192V10.9682C19 11.3678 18.8067 11.7204 18.4202 12.026C18.0634 12.3316 17.6322 12.4844 17.1268 12.4844H1.87324C1.36776 12.4844 0.921753 12.3316 0.535211 12.026C0.178404 11.7204 0 11.3678 0 10.9682V1.94192C0 1.54232 0.178404 1.18973 0.535211 0.884149C0.921753 0.57857 1.36776 0.425781 1.87324 0.425781H17.1268Z" fill="#F07F45"/>
</svg>
