<svg width="20" height="17" viewBox="0 0 20 17" fill="none" xmlns="http://www.w3.org/2000/svg">
    <path d="M19.2287 0.731087C18.7625 0.586785 18.2237 0.666849 17.8662 0.933111L13.0325 4.53323L7.65625 1.32971C7.16125 1.03552 6.44 1.06252 5.99125 1.3986L0.36625 5.58803C0.13125 5.76213 0 5.99859 0 6.24624V15.5561C0 15.9322 0.30375 16.2729 0.77125 16.4163C0.92625 16.4656 1.08875 16.4871 1.25 16.4871C1.575 16.4871 1.895 16.3921 2.13375 16.2143L6.9675 12.6142L12.3438 15.8177C12.8387 16.1119 13.5575 16.083 14.0088 15.7488L19.6338 11.5594C19.8688 11.3853 20 11.1488 20 10.9012V1.59132C20 1.2152 19.6962 0.874459 19.2287 0.731087ZM2.5 13.3087V6.63166L6.25 3.83871V10.579C6.1625 10.6191 2.5 13.3087 2.5 13.3087ZM7.65625 10.6395L7.5 10.5762V3.62272C7.5 3.62272 12.4487 6.54881 12.5 6.57022V13.5275L7.65625 10.6395ZM17.5 10.5157L13.75 13.3087V6.57208C13.8375 6.53205 17.5 3.83871 17.5 3.83871V10.5157Z" fill="#F07F45"/>
</svg>
