<svg width="26" height="46" viewBox="0 0 26 46" fill="none" xmlns="http://www.w3.org/2000/svg">
    <path d="M13 23.2824C19.0313 23.2824 23.9529 18.0714 23.9529 11.654C23.9529 5.21094 19.0313 0 13 0C6.96869 0 2.04714 5.21094 2.04714 11.654C2.04714 18.0714 6.96869 23.2824 13 23.2824ZM13 5.90402C15.9674 5.90402 18.3799 8.47098 18.3799 11.654C18.3799 14.8114 15.9674 17.3783 13 17.3783C10.0326 17.3783 7.62007 14.8114 7.62007 11.654C7.62007 8.47098 10.0326 5.90402 13 5.90402ZM25.6175 24.6942C24.9902 23.385 23.2774 22.2812 21.0096 24.1808C21.0096 24.1808 17.9457 26.7734 13 26.7734C8.05433 26.7734 4.99042 24.1808 4.99042 24.1808C2.72265 22.2812 1.00976 23.385 0.382499 24.6942C-0.679012 27.0045 0.52725 28.1083 3.27753 30.0078C5.61768 31.5993 8.85046 32.1897 10.9252 32.4208L9.18821 34.269C6.72744 36.8616 4.38729 39.3772 2.74677 41.1228C1.75764 42.1752 1.75764 43.8694 2.74677 44.8962L3.03628 45.2299C4.00129 46.2567 5.59355 46.2567 6.58269 45.2299L13.0241 38.3504C15.4849 40.9688 17.8492 43.4844 19.4656 45.2299C20.4547 46.2567 22.047 46.2567 23.0361 45.2299L23.3256 44.8962C24.2906 43.8694 24.2906 42.1752 23.3256 41.1228L16.8842 34.269L15.123 32.4208C17.2219 32.1897 20.4064 31.5737 22.7225 30.0078C25.4727 28.1083 26.679 27.0045 25.6175 24.6942Z" fill="black"/>
</svg>
