<svg width="19" height="19" viewBox="0 0 19 19" fill="none" xmlns="http://www.w3.org/2000/svg">
    <path d="M19 15.0057C19 14.9112 19 14.8168 18.9595 14.7223C18.8651 14.4389 18.2038 14.142 17.9339 14.0071C17.1648 13.5753 16.3821 13.157 15.6264 12.7116C15.2756 12.4957 14.8438 12.0909 14.4254 12.0909C13.6023 12.0909 12.4013 14.5334 11.6726 14.5334C11.3082 14.5334 10.8359 14.196 10.5121 14.0071C8.05611 12.6442 6.35582 10.9439 4.9929 8.48793C4.80398 8.16406 4.46662 7.69176 4.46662 7.32742C4.46662 6.59872 6.90909 5.39773 6.90909 4.57457C6.90909 4.15625 6.50426 3.72443 6.28835 3.37358C5.84304 2.6179 5.42472 1.83523 4.9929 1.06605C4.85795 0.796165 4.56108 0.134943 4.2777 0.0404832C4.18324 0 4.08878 0 3.99432 0C3.50852 0 2.56392 0.21591 2.11861 0.418324C1.45739 0.701705 1.02557 1.45739 0.68821 2.06463C0.256392 2.8608 0 3.67045 0 4.57457C0 5.82955 0.512784 6.96307 0.931108 8.11008C1.22798 8.93324 1.59233 9.7294 2.05114 10.4716C3.46804 12.7656 6.23438 15.532 8.52841 16.9489C9.2706 17.4077 10.0668 17.772 10.8899 18.0689C12.0369 18.4872 13.1705 19 14.4254 19C15.3295 19 16.1392 18.7436 16.9354 18.3118C17.5426 17.9744 18.2983 17.5426 18.5817 16.8814C18.7841 16.4361 19 15.4915 19 15.0057Z" fill="#F07F45"/>
</svg>
