<svg width="54" height="59" viewBox="0 0 54 59" fill="none" xmlns="http://www.w3.org/2000/svg">
    <path d="M38.9531 11.7723C38.9531 9.00235 40.4531 6.37089 43.4531 3.87793C46.5469 1.29264 50.0625 0 54 0V59H46.5469V35.4554H38.9531V11.7723ZM24.0469 20.6362V0H29.9531V20.6362C29.9531 23.7754 28.875 26.4992 26.7188 28.8075C24.5625 31.0235 21.8906 32.2238 18.7031 32.4085V59H11.25V32.4085C8.0625 32.2238 5.39062 31.0235 3.23438 28.8075C1.07812 26.4992 0 23.7754 0 20.6362V0H6.04688V20.6362H11.9531V0H18V20.6362H24.0469Z" fill="#F07F45"/>
</svg>
