<svg width="46" height="29" viewBox="0 0 46 29" fill="none" xmlns="http://www.w3.org/2000/svg">
    <path fill-rule="evenodd" clip-rule="evenodd" d="M11.3688 26.216H22.9125H23.0875H34.6312V29H46V19.024L41.8023 0H23.0875H22.9125H4.19772L0 19.024V29H11.3688V26.216ZM22.9125 21.112H3.4981V26.448H7.52091V23.664H22.9125H23.0875H38.4791V26.448H42.5019V21.112H23.0875H22.9125ZM11.1939 2.784L9.44487 18.328H3.673L7.34601 2.784H11.1939ZM21.3384 18.328V2.784H15.0418L13.4677 18.328H21.3384ZM34.8061 2.784L36.5551 18.328H42.327L38.654 2.784H34.8061ZM24.6616 18.328V2.784H30.9582L32.5323 18.328H24.6616Z" fill="#F07F45"/>
</svg>
