<svg width="31" height="40" viewBox="0 0 31 40" fill="none" xmlns="http://www.w3.org/2000/svg">
    <path fill-rule="evenodd" clip-rule="evenodd" d="M27.9787 39.9294C28.018 39.8902 28.2304 39.7647 28.4429 39.6471C29.5208 39.0588 30.284 38.2118 30.6931 37.1373L30.7038 37.1094C30.7201 37.0667 30.7356 37.0265 30.7502 36.9859C31.0002 36.2902 31.0002 35.5053 31 21.253V21.2529V21.2528V21.2527L31 20.0784L31 18.9036V18.9035V18.9034V18.9033V18.9032V18.9032C31.0002 4.65015 31.0002 3.86633 30.7505 3.17172C30.7359 3.1313 30.7206 3.09118 30.7043 3.04873L30.6931 3.01961C30.1738 1.64706 28.4193 0.345098 27.1132 0.0627449L15.4607 0H4.72081L4.2094 0.0862745C3.6193 0.0705883 2.58073 0.431372 1.96702 0.870588C0.967783 1.57647 0.456363 2.39216 0.086566 3.81176C0.0236219 4.03921 1.78413e-05 9.04314 1.78413e-05 20.0078L8.59031e-06 21.1877C-0.00016195 35.5063 -0.000171287 36.2907 0.249751 36.9857C0.264235 37.026 0.279559 37.066 0.29577 37.1083L0.30687 37.1373C0.794687 38.4314 2.12438 39.702 3.06067 39.7804C3.21017 39.7961 3.34392 39.851 3.36753 39.9059C3.39113 39.9765 3.65863 39.8667 3.89467 39.9059L15.4607 40H27.6954C27.8921 39.9608 27.9315 39.9686 27.9787 39.9294ZM3.17083 39.8667C3.2023 39.8431 3.24951 39.8431 3.28098 39.8667C3.30458 39.898 3.28098 39.9216 3.2259 39.9216C3.17083 39.9216 3.14722 39.898 3.17083 39.8667ZM3.16296 35.9529C3.28098 36.3451 3.7924 36.8784 4.17006 36.9961C4.57133 37.1216 7.82869 37.1216 8.18275 36.9961C8.6627 36.8235 8.82006 36.7059 9.0561 36.3294C9.28427 35.9686 9.28427 35.9608 9.28427 34.7765C9.28427 33.3647 9.19772 33.1216 8.54468 32.6745L8.23783 32.4706H6.23935C4.39824 32.4706 4.21727 32.4863 3.93402 32.6275C3.5957 32.8 3.30458 33.153 3.16296 33.5765C3.03707 33.9373 3.04494 35.5373 3.16296 35.9529ZM13.4858 36.9882C13.0767 36.8392 12.8406 36.6431 12.6282 36.2824C12.4472 35.9765 12.4157 35.8039 12.3764 35.0824C12.3056 33.7098 12.5574 32.9647 13.2183 32.6275C13.5015 32.4863 13.6746 32.4706 15.5 32.4706C17.3254 32.4706 17.4985 32.4863 17.7817 32.6275C18.4426 32.9647 18.6944 33.7098 18.6236 35.0824C18.5843 35.8039 18.5528 35.9765 18.3718 36.2824C18.1515 36.651 17.9155 36.8471 17.467 36.9961C17.1051 37.1216 13.8398 37.1216 13.4858 36.9882ZM21.9439 36.3294C22.1799 36.698 22.3373 36.8157 22.7779 36.9882C23.1162 37.1216 26.3579 37.1294 26.7827 37.0039C27.1997 36.8784 27.7112 36.3686 27.837 35.9529C27.9551 35.5373 27.9629 33.9373 27.837 33.5765C27.6954 33.153 27.4043 32.8 27.066 32.6275C26.7827 32.4863 26.6018 32.4706 24.7606 32.4706H22.7622L22.4553 32.6745C21.8023 33.1216 21.7157 33.3647 21.7157 34.7765C21.7157 35.9608 21.7157 35.9686 21.9439 36.3294ZM4.20154 29.2706C3.82387 29.1529 3.45407 28.8157 3.26524 28.4157C3.09215 28.0549 3.06854 27.9137 3.06854 27.0275C3.06854 25.7412 3.26524 25.2549 3.93402 24.902C4.2094 24.7608 4.80737 24.6588 4.64214 24.7843C4.53986 24.8628 4.53986 24.8706 4.65788 24.8392C4.72869 24.8157 5.5627 24.7843 6.51473 24.7765C8.19849 24.7608 8.24569 24.7608 8.53681 24.9412C8.70204 25.0431 8.93021 25.2863 9.0561 25.4824C9.28427 25.8275 9.28427 25.851 9.28427 26.9882C9.28427 27.8196 9.2528 28.2118 9.16625 28.4157C9.02463 28.7529 8.4896 29.2235 8.16701 29.2863C7.85229 29.349 4.41397 29.3333 4.20154 29.2706ZM12.5652 28.4706C12.7383 28.8079 13.1317 29.153 13.4858 29.2706C13.5802 29.302 14.5401 29.3177 15.618 29.3098L17.585 29.2941L17.9155 29.0588C18.1122 28.9255 18.3246 28.6745 18.4269 28.4706C18.5921 28.1569 18.6079 28 18.6079 27.0588C18.6079 26.3843 18.5685 25.898 18.5056 25.7098C18.3718 25.349 17.884 24.902 17.4906 24.7922C17.1444 24.6902 17.0736 24.6902 16.9398 24.6902C16.9635 24.7216 16.2947 24.6902 15.4607 24.6902C14.6267 24.6902 13.9579 24.7216 13.9815 24.6902C13.769 24.6902 13.8635 24.6902 13.5094 24.7922C13.116 24.902 12.6282 25.349 12.4944 25.7098C12.4315 25.898 12.3921 26.3843 12.3921 27.0588C12.3921 28 12.4157 28.1569 12.5652 28.4706ZM22.77 29.2784C22.5104 29.2235 21.9596 28.7216 21.8337 28.4157C21.7472 28.2118 21.7157 27.8275 21.7157 26.9882C21.7157 25.9451 21.7315 25.8118 21.8967 25.5294C22.1249 25.1294 22.6048 24.8 23.0533 24.7373C23.25 24.7137 23.25 24.7059 23.3129 24.7373C23.2657 24.7686 23.9266 24.7373 24.7843 24.7373C25.6733 24.7373 26.3264 24.7765 26.3028 24.7373C26.3972 24.7373 26.8142 24.7686 27.066 24.902C27.7348 25.2549 27.9315 25.7412 27.9315 27.0275C27.9315 27.9137 27.9157 28.0471 27.7348 28.4157C27.6089 28.6824 27.42 28.902 27.2076 29.0588L26.8693 29.2941L24.9023 29.302C23.8244 29.3098 22.8566 29.302 22.77 29.2784ZM3.15509 20.4784C3.32819 21.0353 3.83174 21.4902 4.4061 21.6C4.51626 21.6157 5.42108 21.6235 6.41245 21.6235L8.22209 21.6079L8.57615 21.3647C8.77285 21.2314 9.00889 20.9647 9.11117 20.7843C9.26853 20.4863 9.28427 20.3451 9.28427 19.3333C9.28427 18.1098 9.21346 17.8196 8.83579 17.4431C8.42666 17.0353 8.19849 16.9882 6.39671 16.9569C5.02768 16.9333 4.65001 16.949 4.28808 17.0588C3.75306 17.2078 3.31245 17.6235 3.17083 18.102C3.04494 18.5098 3.03707 20.0784 3.15509 20.4784ZM13.6668 21.5922C13.0845 21.498 12.5495 20.9333 12.4236 20.3059C12.3135 19.7412 12.3449 18.5725 12.4708 18.1412C12.6282 17.6157 13.0294 17.2157 13.5566 17.0588C14.1231 16.8941 16.8769 16.8941 17.4434 17.0588C18.3561 17.3333 18.6865 18.0157 18.6315 19.5294C18.6 20.3373 18.5764 20.4784 18.3954 20.7922C18.2774 20.9804 18.12 21.1922 18.0414 21.2549C17.5929 21.6 17.5693 21.6079 15.6967 21.6157C14.7053 21.6235 13.7848 21.6157 13.6668 21.5922ZM21.9046 20.8235C22.117 21.1843 22.5969 21.5373 22.9431 21.5922C23.069 21.6157 23.9896 21.6235 24.981 21.6157C26.9952 21.6 27.0896 21.5765 27.5223 21.051C27.8449 20.6588 27.9315 20.298 27.9315 19.302C27.9315 18.251 27.8292 17.8667 27.4436 17.4745C26.9637 16.9961 26.5703 16.9255 24.6033 16.9569C22.8015 16.9882 22.5733 17.0353 22.1642 17.4431C21.7865 17.8196 21.7157 18.1098 21.7157 19.3569C21.7157 20.4235 21.7315 20.5177 21.9046 20.8235ZM3.83961 13.6549C3.57209 13.4824 3.43047 13.3176 3.27311 12.9961L3.06854 12.5569V8.54118C3.06854 5.59216 3.09215 4.43921 3.16296 4.20392C3.28885 3.78823 3.80027 3.27843 4.21727 3.15294C4.68935 3.01176 26.3106 3.01176 26.7827 3.15294C27.1997 3.27843 27.7112 3.78823 27.837 4.20392C27.9079 4.43921 27.9315 5.59216 27.9315 8.53333V12.5412L27.7426 12.9804C27.5931 13.3098 27.4672 13.4588 27.1761 13.6471L26.7985 13.8824H15.5H4.20154L3.83961 13.6549ZM25.4766 12.1882C25.7992 12.0314 26.1533 11.5922 26.2713 11.2235C26.3264 11.0275 26.3579 10.0706 26.3579 8.41569V5.91373L26.1612 5.52157C25.7599 4.71373 25.4766 4.62745 23.2028 4.62745C21.4561 4.62745 21.401 4.63529 21.0548 4.81569C20.6535 5.02745 20.567 5.10588 20.3388 5.45098C20.1893 5.67843 20.1815 5.82745 20.1815 8.47059C20.1815 10.8783 20.1815 11.3613 20.4132 11.6734C20.4713 11.7518 20.5441 11.8193 20.6351 11.9039L20.6457 11.9137C21.0469 12.2902 21.0942 12.298 23.2185 12.3059C24.8944 12.3137 25.2721 12.2902 25.4766 12.1882ZM21.7157 6.19608V8.5098V10.8235L23.2343 10.8078L24.7449 10.7843V8.5098V6.23529L23.2343 6.21177L21.7157 6.19608Z" fill="#F07F45"/>
</svg>
