<svg width="44" height="28" viewBox="0 0 44 28" fill="none" xmlns="http://www.w3.org/2000/svg">
    <path d="M29.9574 15.9732C31.705 15.9732 33.6085 16.2237 35.6681 16.7248C37.7277 17.2259 39.6312 18.0403 41.3787 19.1678C43.1262 20.2953 44 21.5794 44 23.0201V28H32.017V23.0201C32.017 20.264 30.7064 17.9463 28.0851 16.0671C28.522 16.0045 29.1461 15.9732 29.9574 15.9732ZM8.33192 16.7248C10.3915 16.2237 12.295 15.9732 14.0426 15.9732C15.7901 15.9732 17.6936 16.2237 19.7532 16.7248C21.8128 17.2259 23.6851 18.0403 25.3702 19.1678C27.1177 20.2953 27.9915 21.5794 27.9915 23.0201V28H0V23.0201C0 21.5794 0.873759 20.2953 2.62128 19.1678C4.36879 18.0403 6.27234 17.2259 8.33192 16.7248ZM18.1617 10.2416C17.0383 11.4318 15.6652 12.0268 14.0426 12.0268C12.4199 12.0268 11.0156 11.4318 9.82979 10.2416C8.64397 9.05145 8.05106 7.64206 8.05106 6.01342C8.05106 4.38479 8.64397 2.97539 9.82979 1.78523C11.0156 0.595078 12.4199 0 14.0426 0C15.6652 0 17.0383 0.595078 18.1617 1.78523C19.3475 2.97539 19.9404 4.38479 19.9404 6.01342C19.9404 7.64206 19.3475 9.05145 18.1617 10.2416ZM34.1702 10.2416C32.9844 11.4318 31.5801 12.0268 29.9574 12.0268C28.3348 12.0268 26.9305 11.4318 25.7447 10.2416C24.5589 9.05145 23.966 7.64206 23.966 6.01342C23.966 4.38479 24.5589 2.97539 25.7447 1.78523C26.9305 0.595078 28.3348 0 29.9574 0C31.5801 0 32.9844 0.595078 34.1702 1.78523C35.356 2.97539 35.9489 4.38479 35.9489 6.01342C35.9489 7.64206 35.356 9.05145 34.1702 10.2416Z" fill="#F07F45"/>
</svg>
