<svg width="50" height="32" viewBox="0 0 50 32" fill="none" xmlns="http://www.w3.org/2000/svg">
    <path d="M46.4999 13.4083L45.2051 8.22912C45.5591 8.15392 45.8247 7.83986 45.8247 7.46359V6.62853C45.8247 4.81544 44.3496 3.34044 42.5366 3.34044H36.6389V1.61797C36.6389 0.725783 35.9132 0 35.021 0H4.95821C4.06602 0 3.34024 0.725783 3.34024 1.61797V15.8143C3.34024 16.2466 3.69073 16.5972 4.12315 16.5972C4.55548 16.5972 4.90606 16.2467 4.90606 15.8143V1.61797C4.90606 1.58916 4.9294 1.56582 4.95821 1.56582H35.0209C35.0497 1.56582 35.073 1.58916 35.073 1.61797V15.8145C35.073 16.2468 35.4235 16.5974 35.8559 16.5974C36.2883 16.5974 36.6388 16.2469 36.6388 15.8145V14.927H45.8741C45.8749 14.927 45.8755 14.9272 45.8762 14.9272C45.8769 14.9272 45.8776 14.9271 45.8783 14.9271C47.0147 14.9279 47.9797 15.6738 48.3111 16.7016H45.8768C45.4444 16.7016 45.0938 17.0521 45.0938 17.4845V19.1546C45.0938 20.5073 46.1942 21.6077 47.5469 21.6077H48.4342V25.0523H46.3871C45.7146 23.1106 43.8688 21.712 41.7014 21.712C39.5339 21.712 37.688 23.1106 37.0156 25.0523H36.6386V19.1545C36.6386 18.7222 36.2882 18.3716 35.8557 18.3716C35.4234 18.3716 35.0728 18.7221 35.0728 19.1545V25.0521H18.8298C18.1574 23.1104 16.3116 21.7118 14.1441 21.7118C11.9766 21.7118 10.1307 23.1104 9.45832 25.0521H4.95821C4.9294 25.0521 4.90606 25.0288 4.90606 25V23.2776H8.29855C8.73088 23.2776 9.08146 22.9271 9.08146 22.4947C9.08146 22.0623 8.73097 21.7118 8.29855 21.7118H0.782912C0.350587 21.7118 0 22.0623 0 22.4947C0 22.9271 0.350489 23.2776 0.782912 23.2776H3.34034V25C3.34034 25.8921 4.06612 26.6179 4.95831 26.6179H9.18723C9.18703 26.6353 9.18586 26.6526 9.18586 26.6701C9.18586 29.4041 11.4102 31.6283 14.1441 31.6283C16.878 31.6283 19.1023 29.4041 19.1023 26.6701C19.1023 26.6525 19.1011 26.6353 19.1009 26.6179H36.7445C36.7443 26.6353 36.7431 26.6526 36.7431 26.6701C36.7431 29.4041 38.9675 31.6283 41.7014 31.6283C44.4352 31.6283 46.6596 29.4041 46.6596 26.6701C46.6596 26.6525 46.6584 26.6353 46.6582 26.6179H49.2171C49.6494 26.6179 50 26.2674 50 25.835V17.4843C50.0001 15.4226 48.4789 13.7096 46.4999 13.4083ZM36.6389 4.90616H42.5366C43.4863 4.90616 44.259 5.67882 44.259 6.62853V6.68068H36.6389V4.90616ZM36.6389 13.3613V8.2464H43.5955L44.8742 13.3613H36.6389ZM14.1441 30.0628C12.2735 30.0628 10.7516 28.541 10.7516 26.6703C10.7516 24.7996 12.2735 23.2778 14.1441 23.2778C16.0147 23.2778 17.5366 24.7996 17.5366 26.6703C17.5366 28.541 16.0147 30.0628 14.1441 30.0628ZM41.7015 30.0628C39.8309 30.0628 38.3091 28.541 38.3091 26.6703C38.3091 24.7996 39.8309 23.2778 41.7015 23.2778C43.5722 23.2778 45.094 24.7996 45.094 26.6703C45.094 28.541 43.5722 30.0628 41.7015 30.0628ZM48.4344 20.0418H47.5471C47.0578 20.0418 46.6598 19.6438 46.6598 19.1545V18.2672H48.4343V20.0418H48.4344Z" fill="#F07F45"/>
    <path d="M14.1443 25.0508C13.2522 25.0508 12.5264 25.7766 12.5264 26.6688C12.5264 27.5609 13.2522 28.2867 14.1443 28.2867C15.0365 28.2867 15.7623 27.5609 15.7623 26.6688C15.7623 25.7766 15.0365 25.0508 14.1443 25.0508Z" fill="#F07F45"/>
    <path d="M41.702 25.0508C40.8098 25.0508 40.084 25.7766 40.084 26.6688C40.084 27.5609 40.8098 28.2867 41.702 28.2867C42.5941 28.2867 43.3199 27.5609 43.3199 26.6688C43.3199 25.7766 42.5941 25.0508 41.702 25.0508Z" fill="#F07F45"/>
    <path d="M32.515 21.7109H20.8239C20.3916 21.7109 20.041 22.0614 20.041 22.4938C20.041 22.9263 20.3915 23.2768 20.8239 23.2768H32.515C32.9473 23.2768 33.2979 22.9263 33.2979 22.4938C33.2979 22.0614 32.9474 21.7109 32.515 21.7109Z" fill="#F07F45"/>
    <path d="M12.4738 18.3711H2.45283C2.02051 18.3711 1.66992 18.7216 1.66992 19.154C1.66992 19.5864 2.02041 19.9369 2.45283 19.9369H12.4738C12.9061 19.9369 13.2567 19.5864 13.2567 19.154C13.2567 18.7216 12.9061 18.3711 12.4738 18.3711Z" fill="#F07F45"/>
    <path d="M27.2248 7.74486C26.9191 7.4392 26.4233 7.4392 26.1176 7.74496L19.1555 14.707L15.5337 11.0852C15.228 10.7794 14.7323 10.7794 14.4266 11.0852C14.1208 11.391 14.1208 11.8866 14.4266 12.1923L18.602 16.3677C18.7548 16.5207 18.9552 16.597 19.1555 16.597C19.3558 16.597 19.5563 16.5207 19.709 16.3677L27.2247 8.85209C27.5304 8.54623 27.5304 8.05062 27.2248 7.74486Z" fill="#F07F45"/>
</svg>
