<svg width="47" height="42" viewBox="0 0 47 42" fill="none" xmlns="http://www.w3.org/2000/svg">
    <path d="M21.9333 20.9881C21.9333 24.3509 19.1182 27.0937 15.6667 27.0937C12.2151 27.0937 9.4 24.3509 9.4 20.9881C9.4 17.6252 12.2151 14.8825 15.6667 14.8825C19.1182 14.8825 21.9333 17.6252 21.9333 20.9881ZM40.7333 33.1993C40.7333 34.8688 39.338 36.2521 37.6 36.2521C35.8865 36.2521 34.4667 34.8927 34.4667 33.1993C34.4667 31.5298 35.8865 30.1465 37.6 30.1465C39.3135 30.1465 40.7333 31.5298 40.7333 33.1993ZM40.7333 8.77683C40.7333 10.4463 39.338 11.8296 37.6 11.8296C35.8865 11.8296 34.4667 10.4702 34.4667 8.77683C34.4667 7.10732 35.8865 5.72402 37.6 5.72402C39.3135 5.72402 40.7333 7.10732 40.7333 8.77683ZM31.3333 18.8177C31.3333 18.4838 31.0885 18.1738 30.7458 18.1022L27.025 17.5537C26.8047 16.8859 26.5109 16.2419 26.1927 15.598C26.8781 14.6678 27.6125 13.8092 28.3224 12.879C28.4203 12.7359 28.4938 12.5928 28.4938 12.4259C28.4938 11.7581 25.6052 9.18228 24.9688 8.60988C24.8219 8.49063 24.6505 8.41908 24.4547 8.41908C24.2833 8.41908 24.112 8.46678 23.9651 8.58603L21.0766 10.7087C20.4891 10.4225 19.8771 10.1601 19.2406 9.96934L18.6776 6.32027C18.6286 5.98637 18.2859 5.72402 17.9432 5.72402H13.3901C13.0474 5.72402 12.7536 5.96252 12.6557 6.29642C12.3375 7.46508 12.2151 8.77683 12.0927 9.96934C11.4318 10.184 10.8198 10.4225 10.2078 10.7325L7.39271 8.58603C7.24583 8.49063 7.07448 8.41908 6.87865 8.41908C6.16875 8.41908 3.42708 11.3049 2.9375 11.9489C2.8151 12.092 2.76615 12.2589 2.76615 12.4259C2.76615 12.5928 2.83958 12.7598 2.9375 12.9029C3.72083 13.8092 4.45521 14.6917 5.14063 15.6457C4.8224 16.2419 4.55312 16.8382 4.35729 17.4583L0.563021 18.0307C0.244792 18.0784 0 18.4361 0 18.7462V23.1584C0 23.4923 0.244792 23.8024 0.5875 23.8501L4.30833 24.4225C4.52865 25.0903 4.8224 25.7342 5.1651 26.3782C4.45521 27.3083 3.72083 28.1908 3.01094 29.0971C2.91302 29.2402 2.83958 29.3833 2.83958 29.5503C2.83958 30.2419 5.72813 32.7939 6.36458 33.3663C6.51146 33.4855 6.68281 33.5571 6.87865 33.5571C7.05 33.5571 7.24583 33.5094 7.36823 33.3901L10.2568 31.2675C10.8443 31.5537 11.4563 31.816 12.0927 32.0068L12.6557 35.6559C12.7047 35.9898 13.0474 36.2521 13.3901 36.2521H17.9432C18.2859 36.2521 18.5797 36.0136 18.6776 35.6797C18.9958 34.5111 19.1182 33.1993 19.2406 31.983C19.9016 31.7922 20.5135 31.5537 21.1255 31.2436L23.9406 33.3901C24.0875 33.4855 24.2589 33.5571 24.4547 33.5571C25.1646 33.5571 27.9062 30.6474 28.3958 30.0034C28.5182 29.8842 28.5672 29.7172 28.5672 29.5503C28.5672 29.3595 28.4938 29.2164 28.3958 29.0733C27.6125 28.167 26.8781 27.2845 26.1927 26.3305C26.5109 25.7342 26.7802 25.138 26.976 24.5179L30.7703 23.9455C31.0885 23.8978 31.3333 23.54 31.3333 23.23V18.8177ZM47 31.5298C47 31.1721 43.8422 30.8382 43.3526 30.7905C43.1568 30.3612 42.912 29.9319 42.6182 29.5503C42.8385 29.0733 43.8667 26.6882 43.8667 26.2589C43.8667 26.2112 43.8422 26.1397 43.7688 26.092C43.475 25.925 40.8557 24.4225 40.7333 24.4225L40.5865 24.4702C39.7542 25.2811 39.0198 26.2112 38.3344 27.1414C38.0896 27.1175 37.8448 27.0937 37.6 27.0937C37.3552 27.0937 37.1104 27.1175 36.8656 27.1414C36.6208 26.7836 34.7849 24.4225 34.4667 24.4225C34.3443 24.4225 31.725 25.9489 31.4312 26.092C31.3578 26.1397 31.3333 26.2112 31.3333 26.2589C31.3333 26.6644 32.3615 29.0733 32.5818 29.5503C32.288 29.9319 32.0432 30.3612 31.8474 30.7905C31.3578 30.8382 28.2 31.1721 28.2 31.5298V34.8688C28.2 35.2266 31.3578 35.5605 31.8474 35.6082C32.0432 36.0613 32.288 36.4668 32.5818 36.8484C32.3615 37.3254 31.3333 39.7342 31.3333 40.1397C31.3333 40.1874 31.3578 40.2589 31.4312 40.3066C31.725 40.4736 34.3443 42 34.4667 42C34.7849 42 36.6208 39.615 36.8656 39.2572C37.1104 39.2811 37.3552 39.3049 37.6 39.3049C37.8448 39.3049 38.0896 39.2811 38.3344 39.2572C38.5792 39.615 40.4151 42 40.7333 42C40.8557 42 43.475 40.4736 43.7688 40.3066C43.8422 40.2589 43.8667 40.2112 43.8667 40.1397C43.8667 39.7104 42.8385 37.3254 42.6182 36.8484C42.912 36.4668 43.1568 36.0613 43.3526 35.6082C43.8422 35.5605 47 35.2266 47 34.8688V31.5298ZM47 7.10732C47 6.74957 43.8422 6.41567 43.3526 6.36797C43.1568 5.93867 42.912 5.50937 42.6182 5.12777C42.8385 4.65077 43.8667 2.26576 43.8667 1.83646C43.8667 1.78876 43.8422 1.71721 43.7688 1.66951C43.475 1.50256 40.8557 0 40.7333 0L40.5865 0.0477013C39.7542 0.858602 39.0198 1.78876 38.3344 2.71891C38.0896 2.69506 37.8448 2.67121 37.6 2.67121C37.3552 2.67121 37.1104 2.69506 36.8656 2.71891C36.6208 2.36116 34.7849 0 34.4667 0C34.3443 0 31.725 1.5264 31.4312 1.66951C31.3578 1.71721 31.3333 1.78876 31.3333 1.83646C31.3333 2.24191 32.3615 4.65077 32.5818 5.12777C32.288 5.50937 32.0432 5.93867 31.8474 6.36797C31.3578 6.41567 28.2 6.74957 28.2 7.10732V10.4463C28.2 10.8041 31.3578 11.138 31.8474 11.1857C32.0432 11.6388 32.288 12.0443 32.5818 12.4259C32.3615 12.9029 31.3333 15.3118 31.3333 15.7172C31.3333 15.7649 31.3578 15.8365 31.4312 15.8842C31.725 16.0511 34.3443 17.5775 34.4667 17.5775C34.7849 17.5775 36.6208 15.1925 36.8656 14.8348C37.1104 14.8586 37.3552 14.8825 37.6 14.8825C37.8448 14.8825 38.0896 14.8586 38.3344 14.8348C38.5792 15.1925 40.4151 17.5775 40.7333 17.5775C40.8557 17.5775 43.475 16.0511 43.7688 15.8842C43.8422 15.8365 43.8667 15.7888 43.8667 15.7172C43.8667 15.2879 42.8385 12.9029 42.6182 12.4259C42.912 12.0443 43.1568 11.6388 43.3526 11.1857C43.8422 11.138 47 10.8041 47 10.4463V7.10732Z" fill="#F07F45"/>
</svg>
