<svg width="43" height="43" viewBox="0 0 43 43" fill="none" xmlns="http://www.w3.org/2000/svg">
    <path d="M2.68751 37.625V5.375C2.68751 3.89217 3.89487 2.6875 5.37501 2.6875H32.2501C33.7329 2.6875 34.9376 3.89217 34.9376 5.375V21.1745L37.6251 18.487V5.375C37.6251 2.40666 35.2184 0 32.2501 0H5.37501C2.40666 0 0 2.40666 0 5.375V37.625C0 40.5933 2.40666 43 5.37501 43H20.1563V40.3125H5.37501C3.89487 40.3125 2.68751 39.1078 2.68751 37.625ZM29.5626 8.0625H8.06252V10.75H29.5626V8.0625ZM29.5626 13.4375H8.06252V16.125H29.5626V13.4375ZM29.5626 18.8125H8.06252V21.5H29.5626V18.8125ZM8.06252 26.875H18.8125V24.1875H8.06252V26.875ZM42.2126 24.1875L40.3126 22.2874C39.7875 21.7624 39.1002 21.5 38.4125 21.5C37.7248 21.5 37.0372 21.7624 36.5124 22.2874L24.975 33.8249C24.4499 34.3496 22.8438 36.3797 22.8438 37.0673L21.5 43L27.4314 41.6562C27.4314 41.6562 30.1504 40.0501 30.6752 39.5251L42.2126 27.9876C43.2625 26.9382 43.2625 25.236 42.2126 24.1875ZM29.7278 38.5723C29.5757 38.7168 29.0492 39.0722 28.4063 39.4817L24.9249 36.0004C25.282 35.5109 25.6794 35.0188 25.925 34.7749L34.612 26.0879L38.4125 29.8884L29.7278 38.5723Z" fill="#F07F45"/>
</svg>
