<svg width="35" height="25" viewBox="0 0 35 25" fill="none" xmlns="http://www.w3.org/2000/svg">
    <path d="M21.6016 6.28467C20.447 6.9923 19.0799 7.34611 17.5 7.34611C15.9201 7.34611 14.553 6.9923 13.3984 6.28467C12.2439 5.57703 11.6667 4.73905 11.6667 3.77071C11.6667 2.80238 12.2439 1.96439 13.3984 1.25676C14.553 0.549128 15.9201 0.195312 17.5 0.195312C19.0799 0.195312 20.447 0.549128 21.6016 1.25676C22.7561 1.96439 23.3333 2.80238 23.3333 3.77071C23.3333 4.73905 22.7561 5.57703 21.6016 6.28467ZM17.5 11.536C22.3611 8.74275 28.1944 7.34611 35 7.34611V20.4187C28.2552 20.4187 22.4219 21.8339 17.5 24.6645C12.5781 21.8339 6.74479 20.4187 0 20.4187V7.34611C6.80556 7.34611 12.6389 8.74275 17.5 11.536Z" fill="#F07F45"/>
</svg>
