<svg xmlns="http://www.w3.org/2000/svg" display="none">

    <symbol id="phone" viewBox="0 0 14 22">
        <path d="M12.2617 16.9915V2.99574H1.73825V16.9915H12.2617ZM9.02013 19.9872V19.0043H4.97987V19.9872H9.02013ZM10.9933 0C11.8076 0 12.5123 0.296454 13.1074 0.889362C13.7025 1.48227 14 2.1844 14 2.99574V19.0043C14 19.8156 13.7025 20.5177 13.1074 21.1106C12.5123 21.7035 11.8076 22 10.9933 22H3.00671C2.19239 22 1.4877 21.7035 0.892617 21.1106C0.297539 20.5177 0 19.8156 0 19.0043V2.99574C0 2.1844 0.297539 1.48227 0.892617 0.889362C1.4877 0.296454 2.19239 0 3.00671 0H10.9933Z"/>
    </symbol>

    <symbol id="burger" viewBox="0 0 18 15">
        <path d="M18 12.75C18 12.3398 17.6602 12 17.25 12H0.75C0.339844 12 0 12.3398 0 12.75V14.25C0 14.6602 0.339844 15 0.75 15H17.25C17.6602 15 18 14.6602 18 14.25V12.75ZM18 6.75C18 6.33984 17.6602 6 17.25 6H0.75C0.339844 6 0 6.33984 0 6.75V8.25C0 8.66016 0.339844 9 0.75 9H17.25C17.6602 9 18 8.66016 18 8.25V6.75ZM18 0.75C18 0.339843 17.6602 0 17.25 0H0.75C0.339844 0 0 0.339843 0 0.75V2.25C0 2.66016 0.339844 3 0.75 3H17.25C17.6602 3 18 2.66016 18 2.25V0.75Z"/>
    </symbol>


    <symbol id="arrow-left" viewBox="0 0 23 67">
        <path fill-rule="evenodd" clip-rule="evenodd"
              d="M22.6257 0.569668C23.1248 1.32922 23.1248 2.56071 22.6257 3.32027L3.08483 33.0644L22.6257 62.8086C23.1248 63.5682 23.1248 64.7997 22.6257 65.5592C22.1267 66.3188 21.3177 66.3188 20.8187 65.5592L0.374252 34.4398C-0.124751 33.6802 -0.124751 32.4487 0.374252 31.6892L20.8187 0.569668C21.3177 -0.189889 22.1267 -0.189889 22.6257 0.569668Z"/>
    </symbol>

    <symbol id="arrow-right" viewBox="0 0 23 67">
        <path fill-rule="evenodd" clip-rule="evenodd"
              d="M0.37425 0.569668C-0.124752 1.32922 -0.124752 2.56071 0.37425 3.32027L19.9152 33.0644L0.37425 62.8086C-0.124752 63.5682 -0.124752 64.7997 0.37425 65.5592C0.873255 66.3188 1.6823 66.3188 2.1813 65.5592L22.6257 34.4398C23.1248 33.6802 23.1248 32.4487 22.6257 31.6892L2.1813 0.569668C1.6823 -0.189889 0.873255 -0.189889 0.37425 0.569668Z"/>
    </symbol>

    <symbol id="mail" viewBox="0 0 19 16">
        <path fill-rule="evenodd" clip-rule="evenodd"
              d="M1.72727 0H17.2727C18.2267 0 19 0.773326 19 1.72727V13.8182C19 14.7721 18.2267 15.5455 17.2727 15.5455H1.72727C0.773326 15.5455 0 14.7721 0 13.8182V1.72727C0 0.773326 0.773326 0 1.72727 0ZM1.72751 5.71581V13.8182H17.273V5.71587L9.49991 9.6024L1.72751 5.71581ZM1.72751 3.78462L9.49995 7.67123L17.273 3.78472V1.72729H1.72751V3.78462Z"/>
    </symbol>

    <symbol id="tel" viewBox="0 0 19 19">
        <path d="M19 15.0057C19 14.9112 19 14.8168 18.9595 14.7223C18.8651 14.4389 18.2038 14.142 17.9339 14.0071C17.1648 13.5753 16.3821 13.157 15.6264 12.7116C15.2756 12.4957 14.8438 12.0909 14.4254 12.0909C13.6023 12.0909 12.4013 14.5334 11.6726 14.5334C11.3082 14.5334 10.8359 14.196 10.5121 14.0071C8.05611 12.6442 6.35582 10.9439 4.9929 8.48793C4.80398 8.16406 4.46662 7.69176 4.46662 7.32742C4.46662 6.59872 6.90909 5.39773 6.90909 4.57457C6.90909 4.15625 6.50426 3.72443 6.28835 3.37358C5.84304 2.6179 5.42472 1.83523 4.9929 1.06605C4.85795 0.796165 4.56108 0.134943 4.2777 0.0404832C4.18324 0 4.08878 0 3.99432 0C3.50852 0 2.56392 0.21591 2.11861 0.418324C1.45739 0.701705 1.02557 1.45739 0.68821 2.06463C0.256392 2.8608 0 3.67045 0 4.57457C0 5.82955 0.512784 6.96307 0.931108 8.11008C1.22798 8.93324 1.59233 9.7294 2.05114 10.4716C3.46804 12.7656 6.23438 15.532 8.52841 16.9489C9.2706 17.4077 10.0668 17.772 10.8899 18.0689C12.0369 18.4872 13.1705 19 14.4254 19C15.3295 19 16.1392 18.7436 16.9354 18.3118C17.5426 17.9744 18.2983 17.5426 18.5817 16.8814C18.7841 16.4361 19 15.4915 19 15.0057Z"/>
    </symbol>


    <symbol id="location" viewBox="0 0 14 21">
        <path d="M10.5 7C10.5 8.92774 8.92773 10.5 7 10.5C5.07227 10.5 3.5 8.92774 3.5 7C3.5 5.07227 5.07227 3.5 7 3.5C8.92773 3.5 10.5 5.07227 10.5 7ZM14 7C14 3.13086 10.8691 0 7 0C3.13086 0 0 3.13086 0 7C0 7.83399 0.0957031 8.69531 0.451172 9.44727L5.44141 20.0293C5.71484 20.6309 6.34375 21 7 21C7.65625 21 8.28516 20.6309 8.57227 20.0293L13.5488 9.44727C13.9043 8.69531 14 7.83399 14 7Z"/>
    </symbol>

    <symbol id="fb" viewBox="0 0 10 20">
        <path d="M10 0V4H8C7.31 4 7 4.81 7 5.5V8H10V12H7V20H3V12H0V8H3V4C3 2.93913 3.42143 1.92172 4.17157 1.17157C4.92172 0.421427 5.93913 0 7 0H10Z"/>
    </symbol>

    <symbol id="instagram" viewBox="0 0 20 20">
        <path d="M5.8 0H14.2C17.4 0 20 2.6 20 5.8V14.2C20 15.7383 19.3889 17.2135 18.3012 18.3012C17.2135 19.3889 15.7383 20 14.2 20H5.8C2.6 20 0 17.4 0 14.2V5.8C0 4.26174 0.61107 2.78649 1.69878 1.69878C2.78649 0.61107 4.26174 0 5.8 0ZM5.6 2C4.64522 2 3.72955 2.37928 3.05442 3.05442C2.37928 3.72955 2 4.64522 2 5.6V14.4C2 16.39 3.61 18 5.6 18H14.4C15.3548 18 16.2705 17.6207 16.9456 16.9456C17.6207 16.2705 18 15.3548 18 14.4V5.6C18 3.61 16.39 2 14.4 2H5.6ZM15.25 3.5C15.5815 3.5 15.8995 3.6317 16.1339 3.86612C16.3683 4.10054 16.5 4.41848 16.5 4.75C16.5 5.08152 16.3683 5.39946 16.1339 5.63388C15.8995 5.8683 15.5815 6 15.25 6C14.9185 6 14.6005 5.8683 14.3661 5.63388C14.1317 5.39946 14 5.08152 14 4.75C14 4.41848 14.1317 4.10054 14.3661 3.86612C14.6005 3.6317 14.9185 3.5 15.25 3.5ZM10 5C11.3261 5 12.5979 5.52678 13.5355 6.46447C14.4732 7.40215 15 8.67392 15 10C15 11.3261 14.4732 12.5979 13.5355 13.5355C12.5979 14.4732 11.3261 15 10 15C8.67392 15 7.40215 14.4732 6.46447 13.5355C5.52678 12.5979 5 11.3261 5 10C5 8.67392 5.52678 7.40215 6.46447 6.46447C7.40215 5.52678 8.67392 5 10 5ZM10 7C9.20435 7 8.44129 7.31607 7.87868 7.87868C7.31607 8.44129 7 9.20435 7 10C7 10.7956 7.31607 11.5587 7.87868 12.1213C8.44129 12.6839 9.20435 13 10 13C10.7956 13 11.5587 12.6839 12.1213 12.1213C12.6839 11.5587 13 10.7956 13 10C13 9.20435 12.6839 8.44129 12.1213 7.87868C11.5587 7.31607 10.7956 7 10 7Z"/>
    </symbol>

</svg>