<svg width="48" height="39" viewBox="0 0 48 39" fill="none" xmlns="http://www.w3.org/2000/svg">
    <path d="M48 4.63125C46.2335 5.39297 44.3147 5.94141 42.335 6.15469C44.3756 4.93594 45.9289 3.01641 46.6599 0.731251C44.7716 1.85859 42.6396 2.68125 40.4162 3.10781C38.6193 1.18828 36.0609 0 33.2284 0C27.7766 0 23.3909 4.41797 23.3909 9.84141C23.3909 10.6031 23.4822 11.3648 23.6345 12.0961C15.4721 11.6695 8.19289 7.76953 3.35025 1.79766C2.49746 3.26015 2.01015 4.93594 2.01015 6.76406C2.01015 10.1766 3.74619 13.193 6.39594 14.9602C4.78173 14.8992 3.25888 14.4422 1.94924 13.7109C1.94924 13.7414 1.94924 13.8023 1.94924 13.8328C1.94924 18.6164 5.32995 22.5773 9.83756 23.4914C9.01523 23.7047 8.13198 23.8266 7.24873 23.8266C6.60914 23.8266 6 23.7656 5.39086 23.6742C6.63959 27.5742 10.264 30.4078 14.5888 30.4992C11.2081 33.15 6.97462 34.7039 2.37563 34.7039C1.5533 34.7039 0.791878 34.6734 0 34.582C4.35533 37.3852 9.533 39 15.1066 39C33.198 39 43.0964 24.0094 43.0964 10.9992C43.0964 10.5727 43.0964 10.1461 43.066 9.71953C44.9848 8.31797 46.6599 6.58125 48 4.63125Z" fill="black"/>
</svg>
