<svg width="68" height="79" viewBox="0 0 68 79" fill="none" xmlns="http://www.w3.org/2000/svg">
    <path fill-rule="evenodd" clip-rule="evenodd" d="M19.6056 4.9375C16.6366 4.9375 15.5589 6.83849 14.8587 8.08522C14.1585 9.33195 13.7373 9.875 12.6036 9.875H4.20119C4.12324 9.875 4.04529 9.87681 3.96871 9.88073C3.78819 9.88947 3.60767 9.90875 3.43125 9.93768C3.25483 9.96661 3.08115 10.0055 2.91157 10.0537C2.28385 10.2324 1.70674 10.5407 1.23082 10.9596C0.443095 11.6542 0 12.596 0 13.5781V75.2969C0 76.279 0.443095 77.2208 1.23082 77.9154C2.01854 78.6097 3.08662 79 4.20119 79H46.2131C47.3277 79 48.3958 78.6097 49.1835 77.9154C49.9712 77.2208 50.4143 76.279 50.4143 75.2969V59.25C50.4143 58.9227 50.2666 58.6087 50.0041 58.3773C49.7415 58.1458 49.3859 58.0156 49.0139 58.0156C48.642 58.0156 48.2864 58.1458 48.0238 58.3773C47.7612 58.6087 47.6135 58.9227 47.6135 59.25V75.2969C47.6135 75.6242 47.4658 75.9382 47.2033 76.1696C46.9407 76.4011 46.5851 76.5312 46.2131 76.5312H4.20119C3.99606 76.5312 3.79502 76.4915 3.61177 76.4167C3.46407 76.3565 3.32868 76.2733 3.21107 76.1696C2.94849 75.9382 2.8008 75.6242 2.8008 75.2969V13.5781C2.8008 13.4208 2.83499 13.2665 2.89926 13.1228L2.92798 13.064L2.94986 13.023L2.98132 12.9724L3.02645 12.9061L3.07431 12.8461L3.11534 12.7982L3.14269 12.7708L3.21107 12.7054C3.30133 12.6255 3.4039 12.5577 3.5133 12.5032C3.72118 12.3995 3.95777 12.3438 4.20119 12.3438H18.9054V14.1953H7.00199C6.44539 14.1953 5.91067 14.3903 5.5168 14.7378C5.12294 15.0849 4.90139 15.556 4.90139 16.0469V71.5938C4.90139 71.645 4.90413 71.6962 4.9096 71.7471L4.92327 71.8553L4.94789 71.9819C5.03131 72.3282 5.22824 72.6488 5.5168 72.9029C5.64809 73.018 5.79442 73.1162 5.95033 73.1964C6.03922 73.2419 6.13221 73.2817 6.22794 73.3148L6.34555 73.3525C6.55479 73.4134 6.77634 73.4453 7.00199 73.4453H43.4123C43.653 73.4453 43.8896 73.4088 44.1125 73.3392C44.1987 73.3127 44.2821 73.2811 44.3628 73.2449C44.4244 73.2175 44.4832 73.1877 44.5406 73.1551C44.6691 73.0834 44.7895 72.999 44.8975 72.9029C44.9509 72.8559 45.0015 72.8067 45.048 72.7555L45.0986 72.6976L45.1287 72.6612L45.1834 72.5879C45.2148 72.5448 45.2435 72.5008 45.2709 72.4559C45.3078 72.3939 45.342 72.3303 45.3707 72.2652L45.409 72.1696L45.4268 72.1184C45.4829 71.9497 45.5129 71.7731 45.5129 71.5938V59.25C45.5129 59.1557 45.4883 59.0635 45.4432 58.98C45.4268 58.951 45.4076 58.9233 45.3871 58.8971L45.3611 58.8661L45.3078 58.8136C45.1765 58.6979 44.9987 58.6328 44.8127 58.6328C44.7321 58.6328 44.6527 58.6449 44.5789 58.6681C44.4818 58.6985 44.3915 58.7479 44.3177 58.8136C44.2493 58.8736 44.1973 58.9447 44.1631 59.0222C44.1303 59.0942 44.1125 59.1713 44.1125 59.25V61.7188C44.1235 61.8134 44.1303 61.908 44.1344 62.0026L44.1358 62.1599L44.1344 62.2464L44.1249 62.3766L44.1139 62.4963C44.0811 62.782 44.0086 63.064 43.9006 63.3368C43.6954 63.8557 43.3604 64.3276 42.9228 64.7182C42.3771 65.0147 41.7672 65.2055 41.1326 65.2778C40.4967 65.3502 39.8512 65.3025 39.2385 65.138C39.0238 65.0973 38.7995 65.1142 38.5944 65.1868C38.5287 65.2097 38.4672 65.238 38.4084 65.2712C38.3619 65.2974 38.3181 65.3266 38.2771 65.3586C38.2429 65.3845 38.2115 65.4119 38.1814 65.4412C38.1485 65.474 38.1185 65.5087 38.0911 65.5454C37.9653 65.7115 37.8983 65.9071 37.8983 66.1069C37.8983 66.307 37.9653 66.5023 38.0911 66.6686C38.4316 67.0929 38.6245 67.5953 38.6477 68.1148C38.66 68.399 38.6204 68.6817 38.5328 68.9523L38.485 69.0885L38.4617 69.1452L38.4385 69.1967L38.4015 69.2781C38.3482 69.3866 38.2867 69.4921 38.2169 69.5939C37.7287 70.3127 37.0586 70.9226 36.2599 71.3765C35.4613 71.8303 34.5546 72.1157 33.6096 72.2109H7.00199C6.816 72.2109 6.63822 72.1458 6.50693 72.0301C6.37564 71.9144 6.30179 71.7574 6.30179 71.5938V16.0469C6.30179 15.8832 6.37564 15.7262 6.50693 15.6105C6.63822 15.4948 6.816 15.4297 7.00199 15.4297H19.0312C19.1009 15.5825 19.1898 15.7274 19.2979 15.8618L19.3676 15.9357C19.4716 16.0538 19.5933 16.1578 19.7314 16.2443C19.8914 16.3332 20.0596 16.4076 20.236 16.4667H20.3482L20.4863 16.501L20.6039 16.523C20.7133 16.5408 20.8241 16.5508 20.9362 16.5529H29.3386C29.5383 16.5492 29.7366 16.5203 29.9267 16.4667H30.0388L30.1947 16.4097C30.3151 16.3618 30.4313 16.3066 30.5421 16.2443C30.6802 16.1578 30.8033 16.0538 30.9072 15.9357L30.977 15.8618C31.085 15.7274 31.1739 15.5825 31.2423 15.4297H43.4123C43.5983 15.4297 43.7761 15.4948 43.9074 15.6105C44.0387 15.7262 44.1125 15.8832 44.1125 16.0469V43.2031C44.1125 43.2381 44.1166 43.2727 44.1235 43.3068C44.1467 43.4319 44.2151 43.5485 44.3177 43.6395C44.3861 43.6995 44.4654 43.7459 44.5529 43.7766C44.635 43.8052 44.7225 43.8203 44.8127 43.8203C44.9235 43.8203 45.0302 43.7974 45.1273 43.7543L45.1628 43.7365L45.1998 43.7166L45.2504 43.6847L45.3078 43.6395C45.357 43.5961 45.3981 43.547 45.4309 43.4939C45.4842 43.4053 45.5129 43.3056 45.5129 43.2031V16.0469C45.5129 15.8652 45.4829 15.6861 45.424 15.515C45.3256 15.2239 45.1451 14.9562 44.8975 14.7378C44.5037 14.3903 43.9689 14.1953 43.4123 14.1953H31.509V12.3438H46.2131C46.5851 12.3438 46.9407 12.4739 47.2033 12.7054C47.4658 12.9368 47.6135 13.2508 47.6135 13.5781V33.3281C47.6135 33.4044 47.6217 33.48 47.6382 33.5538C47.6641 33.6777 47.7106 33.797 47.7776 33.9076C47.8419 34.0146 47.9253 34.1135 48.0238 34.2009C48.1619 34.3226 48.326 34.4163 48.5038 34.4778C48.6652 34.5333 48.8375 34.5625 49.0139 34.5625C49.1042 34.5625 49.1931 34.555 49.2792 34.5402C49.3695 34.5248 49.4584 34.5016 49.5432 34.4712C49.6252 34.442 49.7032 34.4058 49.777 34.3633C49.8591 34.3166 49.9343 34.2623 50.0041 34.2009C50.2666 33.9694 50.4143 33.6554 50.4143 33.3281V13.5781C50.4143 12.596 49.9712 11.6542 49.1835 10.9596C48.7131 10.5449 48.1428 10.2387 47.5219 10.0594C47.1034 9.93829 46.6617 9.875 46.2131 9.875H37.8108C36.677 9.875 36.3119 9.40608 35.5556 8.08522C34.7994 6.76435 33.7778 4.9375 30.8088 4.9375H29.1567C29.2566 4.6943 29.3277 4.44297 29.3673 4.18771L29.3837 4.0747L29.3947 3.97073L29.4056 3.81794L29.4084 3.70312C29.4084 3.25651 29.3167 2.81833 29.1431 2.40788C28.9338 1.91575 28.607 1.46341 28.1775 1.0846C27.3898 0.390263 26.3217 0 25.2072 0C24.0926 0 23.0245 0.390263 22.2368 1.0846C21.4491 1.77924 21.006 2.72099 21.006 3.70312C21.0101 4.12413 21.0949 4.54181 21.2576 4.9375H19.6056ZM39.4218 70.1867C39.7896 69.6265 39.992 68.9945 40.0112 68.3475C40.0221 68.0184 39.9838 67.6908 39.9004 67.3726C39.8197 67.0652 39.6966 66.7665 39.5339 66.4836C40.2669 66.6225 41.0259 66.6249 41.7617 66.4911C42.4974 66.3573 43.1922 66.0897 43.8048 65.7058L44.1125 65.4219V71.5938C44.1125 71.7574 44.0387 71.9144 43.9074 72.0301C43.7761 72.1458 43.5983 72.2109 43.4123 72.2109H37.3212C37.6945 71.978 38.0419 71.7152 38.3591 71.4262C38.7681 71.0534 39.125 70.6375 39.4218 70.1867ZM30.1086 14.8125C30.1086 14.9761 30.0347 15.1331 29.9034 15.2489C29.7721 15.3646 29.5944 15.4297 29.4084 15.4297H21.006C20.82 15.4297 20.6422 15.3646 20.5109 15.2489C20.3796 15.1331 20.3058 14.9761 20.3058 14.8125V12.3438H30.1086V14.8125ZM33.0639 9.19603C33.176 9.40608 33.3155 9.64054 33.455 9.875H16.9593C17.0441 9.73336 17.1289 9.59172 17.2068 9.45551L17.293 9.30332L17.3504 9.19603C18.1067 7.87517 18.4719 7.40625 19.6056 7.40625H30.8088C31.9425 7.40625 32.3076 7.87517 33.0639 9.19603ZM23.8068 3.70312C23.8068 3.45902 23.8888 3.22034 24.0434 3.01723C24.1965 2.81441 24.4153 2.6562 24.6711 2.56277C24.7819 2.52209 24.8981 2.49467 25.0171 2.4805C25.1702 2.46182 25.3275 2.46574 25.4807 2.49256C25.7515 2.54017 26.0017 2.6577 26.1973 2.83038C26.3929 3.00306 26.5269 3.22276 26.5802 3.46234C26.6062 3.57384 26.6144 3.68715 26.6048 3.79896L26.5925 3.89148L26.5679 3.99665L26.5488 4.05662C26.5351 4.0967 26.5187 4.13648 26.5009 4.17536C26.4489 4.28807 26.3778 4.39234 26.2903 4.48546C26.2452 4.53398 26.1959 4.57978 26.1426 4.62197L26.0428 4.69279L25.9853 4.72956C25.7556 4.86517 25.4848 4.9375 25.2072 4.9375C25.0102 4.9375 24.8174 4.90104 24.641 4.83232C24.4837 4.77115 24.3401 4.68466 24.217 4.57587C23.9545 4.34442 23.8068 4.0304 23.8068 3.70312ZM25.2072 49.9922C25.4793 49.9922 25.7474 49.9645 26.0072 49.9108C26.211 49.8683 26.4106 49.8099 26.6035 49.736C27.0028 49.5832 27.3693 49.3648 27.6825 49.0884C28.3389 48.5095 28.7082 47.7247 28.7082 46.9062V22.2188C28.7082 21.726 28.5741 21.2454 28.3252 20.8147C28.2145 20.623 28.0804 20.441 27.9245 20.2726C27.848 20.1906 27.7673 20.1119 27.6825 20.0366C27.4623 19.8428 27.2161 19.6774 26.9508 19.543C26.732 19.4318 26.4995 19.342 26.2588 19.2751C26.1057 19.2329 25.9498 19.1997 25.7911 19.1762C25.5997 19.1476 25.4041 19.1328 25.2072 19.1328H14.004C13.0754 19.1328 12.1851 19.458 11.5287 20.0366C10.8722 20.6155 10.503 21.4003 10.503 22.2188V23.6382C10.2937 23.7448 10.1187 23.8976 9.99562 24.0815C9.8739 24.2653 9.80689 24.4741 9.80279 24.6875V27.1562C9.80689 27.3696 9.8739 27.5785 9.99562 27.7623C10.1187 27.9461 10.2937 28.0989 10.503 28.2056V46.9062C10.503 47.7247 10.8722 48.5095 11.5287 49.0884C11.8145 49.3409 12.1454 49.5453 12.5051 49.695C12.9687 49.8888 13.4802 49.9922 14.004 49.9922H25.2072ZM25.2072 48.7578H14.004C13.7565 48.7578 13.513 48.7195 13.2846 48.6463C13.0002 48.5547 12.7376 48.4085 12.5188 48.2154C12.1249 47.8682 11.9034 47.3972 11.9034 46.9062V23.8235H13.3038C13.766 23.8235 13.9766 23.9962 14.3678 24.3666C14.4389 24.4494 14.5155 24.5278 14.5975 24.6013C14.7999 24.7809 15.0338 24.9313 15.2895 25.0464C15.6505 25.2089 16.0485 25.2972 16.4547 25.3047H22.7565C23.019 25.2999 23.2775 25.2613 23.5264 25.1908C23.6618 25.1522 23.7945 25.104 23.9216 25.0464C24.2827 24.884 24.5986 24.6516 24.8434 24.3666C24.9364 24.2789 25.0184 24.2023 25.0964 24.1363C25.1675 24.0757 25.2359 24.0242 25.3043 23.9817C25.3959 23.9254 25.4889 23.8847 25.5928 23.8585C25.6858 23.8349 25.7884 23.8235 25.9074 23.8235H27.3078V46.9062L27.3064 46.9885L27.2955 47.1048C27.279 47.2353 27.2476 47.3631 27.2011 47.4867C27.0999 47.7588 26.9262 48.0089 26.6924 48.2154C26.2985 48.5628 25.7638 48.7578 25.2072 48.7578ZM11.9034 22.2188C11.9034 21.993 11.9499 21.7715 12.0388 21.5642C12.0675 21.4976 12.1017 21.4322 12.1386 21.3689L12.181 21.2996C12.2726 21.1583 12.3861 21.0269 12.5188 20.9096C12.7062 20.7448 12.9236 20.6143 13.1616 20.5227C13.4241 20.4211 13.7113 20.3672 14.004 20.3672H25.2072C25.7638 20.3672 26.2985 20.5622 26.6924 20.9096C27.0862 21.2568 27.3078 21.7278 27.3078 22.2188V22.5891H25.9074C25.7337 22.5924 25.56 22.6105 25.3904 22.6431C25.1661 22.6862 24.9487 22.7546 24.7422 22.8474C24.3812 23.0098 24.0652 23.2422 23.8204 23.5273C23.4293 23.8976 23.2187 24.0703 22.7565 24.0703H16.4547C16.2058 24.0703 16.0307 24.0206 15.8598 23.9169L15.7764 23.8621L15.6779 23.7867C15.5904 23.7147 15.4974 23.6282 15.3907 23.5273C15.3196 23.4444 15.243 23.366 15.161 23.2925C14.9586 23.1129 14.7247 22.9625 14.469 22.8474C14.1079 22.685 13.71 22.5967 13.3038 22.5891H11.9034V22.2188ZM35.6814 62.7798C35.7006 62.8356 35.7102 62.8941 35.7102 62.9531C35.7102 63.03 35.6937 63.1053 35.6623 63.1755C35.6281 63.2551 35.5748 63.328 35.505 63.3895C35.3737 63.5052 35.1959 63.5703 35.01 63.5703H12.6036C12.4176 63.5703 12.2398 63.5052 12.1085 63.3895C12.036 63.3253 11.98 63.2485 11.9458 63.1647C11.9184 63.0975 11.9034 63.0261 11.9034 62.9531C11.9034 62.7895 11.9772 62.6325 12.1085 62.5168C12.2398 62.401 12.4176 62.3359 12.6036 62.3359H35.01C35.1959 62.3359 35.3737 62.401 35.505 62.5168C35.5884 62.5906 35.6486 62.6813 35.6814 62.7798ZM36.6839 51.8736C36.543 51.8492 36.398 51.8434 36.2531 51.8582C36.0739 51.876 35.9016 51.9242 35.7457 51.9983C35.583 52.0761 35.4366 52.1825 35.3177 52.313L30.6966 57.3984L29.0022 55.9049C28.8723 55.7898 28.7164 55.6985 28.5468 55.6364C28.3758 55.574 28.1926 55.5421 28.008 55.5421C27.8233 55.5421 27.6401 55.574 27.4705 55.6364C27.2996 55.6985 27.145 55.7898 27.0137 55.9049C26.8838 56.02 26.7799 56.1565 26.7088 56.3069C26.639 56.4573 26.6021 56.6185 26.6021 56.7812C26.6021 56.8584 26.6103 56.9352 26.6267 57.0109C26.6445 57.0947 26.6718 57.1766 26.7088 57.2556C26.7799 57.406 26.8838 57.5428 27.0137 57.6576L29.8145 60.1264C29.8692 60.1746 29.928 60.2183 29.991 60.2575C30.0279 60.2807 30.0662 60.3021 30.1058 60.3219C30.1592 60.3485 30.2139 60.3723 30.2713 60.3928C30.4423 60.4542 30.6241 60.4853 30.8088 60.4844H30.8936C31.0891 60.4729 31.2806 60.4253 31.4543 60.3445C31.6279 60.2638 31.7797 60.1517 31.9015 60.0155L37.503 53.8436C37.6084 53.7251 37.6877 53.5919 37.7383 53.4512C37.7711 53.3605 37.7916 53.2665 37.7998 53.1712C37.8066 53.0944 37.8053 53.0166 37.7943 52.9389C37.7848 52.8663 37.7684 52.7948 37.7451 52.7258C37.7219 52.6562 37.6904 52.5887 37.6535 52.5239C37.5646 52.3669 37.4374 52.2271 37.2788 52.1153C37.1037 51.9932 36.8999 51.9113 36.6839 51.8736ZM36.4104 20.3672H33.6096C33.4236 20.3672 33.2458 20.3021 33.1145 20.1864C32.9832 20.0706 32.9094 19.9136 32.9094 19.75C32.9094 19.5864 32.9832 19.4294 33.1145 19.3136C33.2458 19.1979 33.4236 19.1328 33.6096 19.1328H36.4104C36.5963 19.1328 36.7741 19.1979 36.9054 19.3136C37.0367 19.4294 37.1106 19.5864 37.1106 19.75C37.1106 19.8648 37.0736 19.976 37.008 20.0725L36.9683 20.1231L36.9396 20.1556L36.9054 20.1864C36.7741 20.3021 36.5963 20.3672 36.4104 20.3672ZM33.6096 25.3047H40.6115C40.7975 25.3047 40.9753 25.2396 41.1066 25.1239C41.2379 25.0081 41.3117 24.8511 41.3117 24.6875C41.3117 24.5239 41.2379 24.3669 41.1066 24.2511C40.9753 24.1354 40.7975 24.0703 40.6115 24.0703H33.6096C33.4236 24.0703 33.2458 24.1354 33.1145 24.2511C33.0475 24.3105 32.9955 24.3807 32.96 24.457C32.9408 24.5004 32.9258 24.5456 32.9176 24.592L32.9135 24.6194L32.9094 24.6875L32.9107 24.72L32.9148 24.7622L32.9203 24.7975C32.9299 24.8436 32.9449 24.8885 32.9654 24.9316C33.001 25.0027 33.0516 25.0681 33.1145 25.1239C33.2458 25.2396 33.4236 25.3047 33.6096 25.3047ZM36.4104 30.2422H33.6096C33.5617 30.2422 33.5152 30.238 33.4701 30.2298L33.4372 30.2232C33.4031 30.2157 33.3702 30.206 33.3388 30.1943C33.2554 30.1635 33.1788 30.1186 33.1145 30.0614C33.0776 30.0294 33.0461 29.9945 33.0188 29.9571C33.001 29.9312 32.9846 29.9044 32.9709 29.8763C32.9312 29.798 32.9094 29.7124 32.9094 29.625C32.9094 29.502 32.9518 29.383 33.0283 29.2824C33.053 29.2489 33.0817 29.2176 33.1145 29.1886C33.2458 29.0729 33.4236 29.0078 33.6096 29.0078H36.4104C36.5963 29.0078 36.7741 29.0729 36.9054 29.1886C37.0367 29.3044 37.1106 29.4614 37.1106 29.625C37.1106 29.6874 37.0996 29.7489 37.0791 29.8076C37.0449 29.9026 36.9861 29.9899 36.9054 30.0614C36.7741 30.1771 36.5963 30.2422 36.4104 30.2422ZM41.2379 34.2886L41.2051 34.2361C41.1777 34.1966 41.1449 34.1596 41.1066 34.1261C40.9753 34.0104 40.7975 33.9453 40.6115 33.9453H33.6096C33.4236 33.9453 33.2458 34.0104 33.1145 34.1261C32.9832 34.2419 32.9094 34.3989 32.9094 34.5625C32.9094 34.6318 32.923 34.6996 32.9477 34.7638C32.9586 34.7927 32.9723 34.8208 32.9887 34.8479C33.0215 34.903 33.0639 34.954 33.1145 34.9989C33.2458 35.1146 33.4236 35.1797 33.6096 35.1797H40.6115C40.6704 35.1797 40.7292 35.1731 40.7866 35.1601C40.9069 35.133 41.0177 35.0775 41.1066 34.9989C41.1709 34.9416 41.2229 34.8744 41.257 34.8015C41.2926 34.7264 41.3117 34.6454 41.3117 34.5625C41.3117 34.4986 41.2994 34.4359 41.2789 34.376C41.268 34.3458 41.2543 34.3166 41.2379 34.2886ZM38.3058 39.0636C38.3674 39.1173 38.4152 39.18 38.4494 39.2481C38.4891 39.3267 38.511 39.4123 38.511 39.5C38.511 39.6636 38.4371 39.8206 38.3058 39.9364C38.2333 40.0006 38.1458 40.0491 38.0514 40.0795C37.9749 40.1042 37.8942 40.1172 37.8108 40.1172H33.6096C33.4236 40.1172 33.2458 40.0521 33.1145 39.9364C32.9832 39.8206 32.9094 39.6636 32.9094 39.5C32.9094 39.4286 32.923 39.3587 32.9504 39.2927C32.9846 39.2074 33.0406 39.129 33.1145 39.0636C33.1979 38.9901 33.3005 38.9371 33.4113 38.9081C33.4755 38.8916 33.5425 38.8828 33.6096 38.8828H37.8108C37.9147 38.8828 38.0159 38.903 38.1075 38.941C38.18 38.9711 38.2484 39.0124 38.3058 39.0636ZM12.6036 67.2734C12.4176 67.2734 12.2398 67.3385 12.1085 67.4543C11.9772 67.57 11.9034 67.727 11.9034 67.8906C11.9034 68.0543 11.9772 68.2113 12.1085 68.327C12.1591 68.371 12.2152 68.4078 12.2767 68.4364C12.3766 68.4828 12.4887 68.5078 12.6036 68.5078H28.008C28.1133 68.5078 28.2172 68.4867 28.3102 68.4472C28.3813 68.4174 28.447 68.377 28.503 68.327C28.5632 68.2737 28.6111 68.2116 28.6453 68.1444C28.6863 68.0654 28.7082 67.9789 28.7082 67.8906C28.7082 67.727 28.6343 67.57 28.503 67.4543C28.3717 67.3385 28.194 67.2734 28.008 67.2734H12.6036ZM41.7986 51.2471C41.8807 50.3776 42.3087 49.5615 43.0062 48.9428L44.981 47.1901L60.0352 33.9577C58.6348 33.8465 56.2812 34.6243 51.6328 38.7222C51.4975 38.8334 51.3197 38.8952 51.1351 38.8952C51.0256 38.8952 50.919 38.8732 50.8219 38.8322C50.7549 38.8042 50.6933 38.7674 50.6386 38.7222C50.5087 38.605 50.4362 38.4476 50.4362 38.284C50.4362 38.1207 50.5087 37.9634 50.6386 37.8458C52.5874 35.9442 54.9068 34.3642 57.4861 33.1799C58.0495 32.9186 58.669 32.7658 59.3036 32.7317C59.9381 32.6977 60.5741 32.783 61.169 32.9825C61.9731 32.4081 62.9892 32.1157 64.0231 32.1613C64.5017 32.1824 64.9681 32.2752 65.4043 32.4325C65.9103 32.6151 66.3767 32.8842 66.7706 33.2293C67.5569 33.9236 68 34.8648 68 35.8463C68 36.4451 67.8345 37.0285 67.5268 37.5505C67.3313 37.8841 67.0769 38.1924 66.7706 38.463L50.9887 52.4362L49.0139 54.1766C48.8184 54.349 48.605 54.5036 48.3766 54.6383C48.1387 54.7781 47.8857 54.8968 47.619 54.9921C47.098 55.1786 46.5386 55.2708 45.9752 55.263C45.1054 55.2591 44.2589 55.0174 43.5518 54.5717L42.5015 55.4851C42.4386 55.5442 42.3634 55.5912 42.2786 55.6234C42.1938 55.6557 42.1036 55.6722 42.0119 55.6722C41.9203 55.6722 41.8287 55.6557 41.7453 55.6234C41.6605 55.5912 41.5839 55.5442 41.521 55.4851C41.4553 55.4278 41.4034 55.3594 41.3678 55.2844C41.3323 55.209 41.3145 55.1283 41.3145 55.0469C41.3145 54.9655 41.3323 54.8848 41.3678 54.8094C41.4034 54.7344 41.4553 54.666 41.521 54.6087L42.5576 53.6953C41.986 52.9835 41.7166 52.1165 41.7986 51.2471ZM46.5126 52.705C46.6836 52.6427 46.8381 52.5513 46.9694 52.4362L47.95 51.5599L45.9752 49.8072L44.981 50.6835L44.9167 50.7432C44.8155 50.8447 44.7348 50.9605 44.676 51.0855C44.6049 51.2359 44.5693 51.3971 44.5693 51.5599C44.5693 51.7226 44.6049 51.8838 44.676 52.0342C44.7471 52.1846 44.8497 52.3211 44.981 52.4362C45.1109 52.5513 45.2668 52.6427 45.4364 52.705C45.6073 52.7671 45.7906 52.7994 45.9752 52.7994C46.1051 52.7994 46.2337 52.7834 46.3581 52.7524C46.4101 52.7394 46.462 52.7234 46.5126 52.705ZM63.7947 34.611C63.4255 34.611 63.0699 34.74 62.8073 34.9699L47.95 48.0665L49.9384 49.8072L64.7821 36.7227C64.9134 36.6078 65.0173 36.4713 65.0884 36.3209C65.1595 36.1706 65.1965 36.009 65.1965 35.8463C65.1965 35.6833 65.1595 35.522 65.0884 35.3717C65.0173 35.221 64.9134 35.0845 64.7821 34.9699C64.5195 34.74 64.1653 34.611 63.7947 34.611Z" fill="#F07F45"/>
</svg>
