<svg width="60" height="83" viewBox="0 0 60 83" fill="none" xmlns="http://www.w3.org/2000/svg">
    <path fill-rule="evenodd" clip-rule="evenodd" d="M3.07692 3.07407H56.9231V79.9259H3.07692V3.07407ZM0 83V0H60V83H0ZM55.3846 4.61111H4.61538V63.787C4.61538 64.6359 5.30349 65.3241 6.15385 65.3241C7.00421 65.3241 7.69231 64.6359 7.69231 63.787V7.68518H52.3077V32.0729C52.3077 32.9217 52.9958 33.6099 53.8462 33.6099C54.6965 33.6099 55.3846 32.9217 55.3846 32.0729V4.61111ZM55.3846 46.9993C55.3846 46.1501 54.6965 45.4623 53.8462 45.4623C53.1866 45.4623 52.6232 45.877 52.4053 46.4593C52.3422 46.6275 52.3077 46.8095 52.3077 46.9993V75.3148H7.69231V69.1667C7.69231 68.3178 7.00421 67.6296 6.15385 67.6296C5.30349 67.6296 4.61538 68.3178 4.61538 69.1667V78.3889H55.3846V46.9993ZM20.7692 64.5556C22.0433 64.5556 23.0769 63.5232 23.0769 62.25C23.0769 60.9768 22.0433 59.9444 20.7692 59.9444C19.4952 59.9444 18.4615 60.9768 18.4615 62.25C18.4615 63.5232 19.4952 64.5556 20.7692 64.5556ZM20.7692 67.6296C23.7425 67.6296 26.1538 65.2213 26.1538 62.25C26.1538 59.2787 23.7425 56.8704 20.7692 56.8704C17.796 56.8704 15.3846 59.2787 15.3846 62.25C15.3846 65.2213 17.796 67.6296 20.7692 67.6296ZM41.3702 57.9278C41.2846 57.8209 41.1704 57.7353 41.0322 57.685C40.6325 57.5398 40.1923 57.7458 40.0466 58.1447L38.6553 61.9659C38.4706 62.4752 37.7299 62.4069 37.6397 61.8725L37.3092 59.8908C37.0673 58.4378 35.0766 58.1984 34.4967 59.5523L34.0084 60.6912C33.8912 60.6379 33.7665 60.6053 33.6388 60.5951C33.5397 60.5873 33.439 60.5929 33.3398 60.6131C33.0919 60.6642 32.8576 60.8083 32.6893 61.0616L30.9435 63.6782C30.3666 62.9746 29.1496 63.0752 28.7695 64.0231L27.7479 66.5755C27.6893 66.7238 27.6788 66.8795 27.7103 67.0243C27.7389 67.1527 27.799 67.2728 27.8876 67.3718C27.9642 67.4585 28.0619 67.5287 28.1761 67.5745C28.5712 67.7321 29.0189 67.5403 29.1752 67.1463L30.0075 65.0708C30.5409 65.6183 31.5114 65.5976 31.9877 64.8843L33.5577 62.5311C33.8281 62.6981 34.1692 62.7435 34.4727 62.644C34.5312 62.6249 34.5883 62.6001 34.6439 62.5697C34.8317 62.4665 34.9925 62.298 35.0947 62.0582L35.8263 60.3523L36.1223 62.1254C36.4724 64.2186 39.375 64.4858 40.1022 62.4913L41.4919 58.6701C41.5475 58.5185 41.552 58.3609 41.5144 58.2157C41.4874 58.111 41.4378 58.0126 41.3702 57.9278ZM13.8462 13.8333C13.8462 12.9845 14.5343 12.2963 15.3846 12.2963H44.6154C45.4657 12.2963 46.1538 12.9845 46.1538 13.8333C46.1538 14.6822 45.4657 15.3704 44.6154 15.3704H15.3846C14.5343 15.3704 13.8462 14.6822 13.8462 13.8333ZM32.3077 19.9815C31.4573 19.9815 30.7692 20.6697 30.7692 21.5185C30.7692 21.8198 30.8564 22.1009 31.0066 22.3381C31.1043 22.4934 31.229 22.63 31.3747 22.7411C31.6331 22.9385 31.9576 23.0556 32.3077 23.0556H38.4615C39.3119 23.0556 40 22.3673 40 21.5185C40 20.6697 39.3119 19.9815 38.4615 19.9815H32.3077ZM21.5385 19.9815C20.6881 19.9815 20 20.6697 20 21.5185C20 22.1065 20.3305 22.6176 20.8158 22.8762C20.954 22.9497 21.1043 23.0026 21.265 23.0312C21.3537 23.0473 21.4453 23.0556 21.5385 23.0556H28.4615C28.8416 23.0556 29.1902 22.9175 29.4591 22.6889C29.7266 22.4615 29.9144 22.1441 29.9775 21.7838L29.9865 21.7234C29.9955 21.6562 30 21.5879 30 21.5185C30 20.6697 29.3119 19.9815 28.4615 19.9815H21.5385ZM27.6923 27.6667C27.6923 26.8178 28.3804 26.1296 29.2308 26.1296H38.4615C39.3119 26.1296 40 26.8178 40 27.6667C40 28.5155 39.3119 29.2037 38.4615 29.2037H29.2308C28.3804 29.2037 27.6923 28.5155 27.6923 27.6667ZM20 27.6667C20 26.8178 20.6881 26.1296 21.5385 26.1296H25.3846C26.235 26.1296 26.9231 26.8178 26.9231 27.6667C26.9231 28.5155 26.235 29.2037 25.3846 29.2037H21.5385C21.0111 29.2037 20.5469 28.9395 20.2689 28.5369C20.0992 28.2896 20 27.9898 20 27.6667ZM33.8462 32.2778C32.9958 32.2778 32.3077 32.966 32.3077 33.8148C32.3077 34.2963 32.5285 34.7259 32.8756 35.0077C33.14 35.2228 33.4781 35.3519 33.8462 35.3519H38.4615C39.3119 35.3519 40 34.6636 40 33.8148C40 32.966 39.3119 32.2778 38.4615 32.2778H33.8462ZM21.5385 32.2778C20.6881 32.2778 20 32.966 20 33.8148C20 34.6636 20.6881 35.3519 21.5385 35.3519H30C30.8504 35.3519 31.5385 34.6636 31.5385 33.8148C31.5385 33.3457 31.3281 32.9258 30.9976 32.644C30.7287 32.4155 30.3801 32.2778 30 32.2778H21.5385ZM20 39.963C20 39.1141 20.6881 38.4259 21.5385 38.4259H23.0769C23.9273 38.4259 24.6154 39.1141 24.6154 39.963C24.6154 40.8118 23.9273 41.5 23.0769 41.5H21.5385C20.6881 41.5 20 40.8118 20 39.963ZM25.3846 39.963C25.3846 39.1141 26.0727 38.4259 26.9231 38.4259H38.4615C39.3119 38.4259 40 39.1141 40 39.963C40 40.8118 39.3119 41.5 38.4615 41.5H26.9231C26.6136 41.5 26.3251 41.4088 26.0847 41.252C25.8293 41.0861 25.6265 40.8463 25.5063 40.563C25.4282 40.3784 25.3846 40.1757 25.3846 39.963ZM21.5385 44.5741C20.6881 44.5741 20 45.2623 20 46.1111C20 46.9599 20.6881 47.6481 21.5385 47.6481H33.0769C33.9273 47.6481 34.6154 46.9599 34.6154 46.1111C34.6154 45.2623 33.9273 44.5741 33.0769 44.5741H21.5385ZM37.1154 44.5741C36.265 44.5741 35.5769 45.2623 35.5769 46.1111C35.5769 46.9599 36.265 47.6481 37.1154 47.6481H38.4615C39.3119 47.6481 40 46.9599 40 46.1111C40 45.2623 39.3119 44.5741 38.4615 44.5741H37.1154Z" fill="white"/>
</svg>
