<svg width="57" height="33" viewBox="0 0 57 33" fill="none" xmlns="http://www.w3.org/2000/svg">
    <path d="M56.9197 2.3864C56.9197 2.3864 56.5042 1.18183 53.9223 1.51309L45.3753 1.57332C44.7224 1.48298 44.2476 1.754 44.2476 1.754C44.2476 1.754 43.7431 2.02503 43.5057 2.68754C42.1109 6.33137 40.3302 9.46326 40.3302 9.46326C36.5316 16.0282 34.9884 16.3895 34.3652 15.9679C32.911 15.0344 33.2968 12.1735 33.2968 10.1258C33.2968 3.74154 34.2465 1.09149 31.4271 0.398859C30.5072 0.188059 29.8246 0.037489 27.4208 0.00737565C24.364 -0.0227409 21.7821 0.00737562 20.3279 0.730119C19.3486 1.21195 18.6067 2.29606 19.0518 2.35629C19.6157 2.44663 20.8918 2.71766 21.5744 3.6512C21.5744 3.6512 22.3163 4.88589 22.435 7.59617C22.7615 15.0946 21.2479 16.0282 21.2479 16.0282C20.0905 16.6606 18.0725 15.6066 15.1048 9.40303C15.1048 9.40303 13.3835 6.33137 12.0481 2.95858C11.8106 2.32618 11.3358 1.99492 11.3358 1.99492C11.3358 1.99492 10.8016 1.57332 10.03 1.45286L1.89853 1.51309C0.652097 1.51309 0.206942 2.08526 0.206942 2.08526C0.206942 2.08526 -0.238213 2.56709 0.177265 3.56086C6.52814 18.7083 13.7693 26.2971 13.7693 26.2971C13.7693 26.2971 20.3873 33.3138 27.8956 32.8319H31.3084C32.3471 32.7416 32.8813 32.1694 32.8813 32.1694C32.8813 32.1694 33.3562 31.6274 33.3265 30.6336C33.2671 25.996 35.4039 25.3034 35.4039 25.3034C37.4813 24.6409 40.1522 29.7904 43.0012 31.7779C43.0012 31.7779 45.1676 33.2836 46.7998 32.9524L54.3971 32.8319C58.4035 32.8018 56.5042 29.429 56.5042 29.429C56.3558 29.158 55.4062 27.0801 50.8359 22.7738C46.0876 18.2867 46.7108 19.0095 52.4681 11.24C55.97 6.51206 57.3648 3.62109 56.9197 2.3864Z" fill="black"/>
</svg>
